<?xml version="1.0" standalone="no"?>
<!DOCTYPE svg PUBLIC "-//W3C//DTD SVG 1.1//EN" "http://www.w3.org/Graphics/SVG/1.1/DTD/svg11.dtd" >
<svg xmlns="http://www.w3.org/2000/svg" xmlns:xlink="http://www.w3.org/1999/xlink" version="1.1">
<metadata>
Created by FontForge 20161013 at Fri Oct 21 05:22:08 2011
 By ,,,
Copyright (c) Christian Schwartz, 2007. All rights reserved.
</metadata>
<defs>
<font id="BBVAWebBook-Regular" horiz-adv-x="1229" >
  <font-face 
    font-family="BBVA Web Book"
    font-weight="500"
    font-stretch="normal"
    units-per-em="2048"
    panose-1="2 11 5 3 4 0 0 2 0 4"
    ascent="1638"
    descent="-410"
    x-height="1071"
    cap-height="1434"
    bbox="-346 -358 2361 1870"
    underline-thickness="102"
    underline-position="-307"
    unicode-range="U+0020-FB02"
  />
<missing-glyph horiz-adv-x="993" 
 />
    <glyph glyph-name=".notdef" horiz-adv-x="993" 
 />
    <glyph glyph-name=".null" horiz-adv-x="0" 
 />
    <glyph glyph-name="nonmarkingreturn" horiz-adv-x="614" 
 />
    <glyph glyph-name="space" unicode=" " horiz-adv-x="614" 
 />
    <glyph glyph-name="exclam" unicode="!" horiz-adv-x="543" 
d="M160 1300v134h223v-134l-39 -931h-145zM270 -10q-26 0 -48.5 9.5t-39.5 27t-27 40.5t-10 50t10 50.5t27 41t39.5 27.5t48.5 10t49 -10t40.5 -27.5t27.5 -41t10 -50.5t-10 -50t-27.5 -40.5t-40.5 -27t-49 -9.5z" />
    <glyph glyph-name="quotedbl" unicode="&#x22;" horiz-adv-x="627" 
d="M66 1309v125h198v-125l-35 -291h-125zM362 1309v125h199v-125l-37 -291h-127z" />
    <glyph glyph-name="numbersign" unicode="#" 
d="M178 1024h213l62 410h145l-61 -410h237l60 410h147l-61 -410h192v-164h-215l-35 -235h193v-164h-215l-68 -461h-147l67 461h-235l-68 -461h-145l67 461h-192v164h215l35 235h-191v164zM481 625h236l35 235h-238z" />
    <glyph glyph-name="dollar" unicode="$" 
d="M676 1444q109 -6 189 -34.5t145 -70.5v-163h-76q-51 43 -113 74t-145 40v-471q106 -29 184 -62.5t129.5 -80t77 -111t25.5 -157.5q0 -95 -29 -169t-84.5 -126.5t-135 -83t-179.5 -37.5v-201h-138v197q-66 3 -122 13.5t-104 26.5t-89 37.5t-78 47.5v176h78q24 -25 54 -49
t69 -44t86.5 -34t105.5 -19v514q-93 28 -165 61t-122 79.5t-76 109t-26 148.5q0 84 28 152t80.5 117.5t127 79t166.5 38.5v123h137v-121zM897 385q0 55 -15.5 92.5t-45 63t-73 43.5t-99.5 34v-471q112 16 172.5 74.5t60.5 163.5zM324 1073q0 -48 14 -81.5t41 -58.5t67 -43
t93 -34v432q-111 -15 -163 -72.5t-52 -142.5z" />
    <glyph glyph-name="percent" unicode="%" horiz-adv-x="1638" 
d="M416 829q74 0 118 61t44 185q0 125 -44 186.5t-118 61.5q-76 0 -120 -61.5t-44 -186.5q0 -124 44 -185t120 -61zM416 707q-65 0 -124 23t-104.5 69.5t-72.5 116t-27 163.5q0 93 27 162t72.5 114.5t104.5 68t124 22.5q64 0 122.5 -22.5t103.5 -68t72 -114.5t27 -162
q0 -94 -27 -163.5t-72 -116t-103.5 -69.5t-122.5 -23zM1241 1493h164l-1010 -1563h-164zM1225 111q74 0 117.5 62t43.5 183q0 125 -43.5 186.5t-117.5 61.5q-76 0 -120 -61.5t-44 -186.5q0 -121 44 -183t120 -62zM1225 -12q-65 0 -124 23t-104.5 69.5t-72.5 116.5t-27 163
q0 94 27 163t72.5 115t104.5 68.5t124 22.5q64 0 122.5 -22.5t103.5 -68.5t72 -115t27 -163q0 -93 -27 -163t-72 -116.5t-103.5 -69.5t-122.5 -23z" />
    <glyph glyph-name="ampersand" unicode="&#x26;" horiz-adv-x="1346" 
d="M948 147q-74 -74 -173 -116.5t-224 -42.5q-118 0 -208 30.5t-150.5 86t-91.5 132.5t-31 169q0 78 24.5 142.5t65.5 115.5t96 89.5t117 65.5q-38 54 -63 118t-25 150q0 79 28 145t81.5 113.5t129.5 74t172 26.5q106 0 176.5 -24t120.5 -64v-164h-82q-35 34 -85.5 58
t-127.5 24q-45 0 -82 -13.5t-64 -38t-41.5 -60t-14.5 -79.5q0 -32 7.5 -61t23.5 -58.5t40 -61t56 -68.5l333 -385q38 83 66.5 182t36.5 203h180v-54q-20 -128 -63.5 -249t-100.5 -220l213 -245v-68h-211zM586 154q83 0 144.5 30t111.5 82l-379 441q-37 -22 -68.5 -48
t-54.5 -60t-36 -77t-13 -98q0 -54 17 -102.5t53 -86t91.5 -59.5t133.5 -22z" />
    <glyph glyph-name="quotesingle" unicode="'" horiz-adv-x="332" 
d="M66 1309v125h198v-125l-35 -291h-125z" />
    <glyph glyph-name="parenleft" unicode="(" horiz-adv-x="643" 
d="M590 1374q-50 -22 -105 -67.5t-101.5 -123t-77 -192.5t-30.5 -276q0 -168 30 -285.5t76.5 -196.5t101.5 -124t106 -68v-141h-47q-81 24 -164 81.5t-151 155.5t-111 240.5t-43 337.5q0 191 43 331t111 237t151 153.5t164 81.5h47v-144z" />
    <glyph glyph-name="parenright" unicode=")" horiz-adv-x="643" 
d="M51 1518h51q53 -17 108 -47t107 -77t98 -111t80 -148t54 -188.5t20 -231.5q0 -130 -20 -236.5t-54 -191.5t-80 -150t-98 -112.5t-107 -78t-108 -46.5h-51v141q34 15 71 40t72.5 62.5t67 89.5t55.5 122t38 159t14 201q0 161 -30.5 276t-77.5 192.5t-103 123t-107 67.5v144
z" />
    <glyph glyph-name="asterisk" unicode="*" horiz-adv-x="766" 
d="M432 1167l150 90l75 25l52 -164l-74 -24l-170 -21l129 -123l49 -67l-133 -99l-49 68l-80 168l-76 -168l-49 -68l-133 99l49 67l129 123l-170 21l-76 24l54 164l73 -25l150 -90l-33 183v84h166v-84z" />
    <glyph glyph-name="plus" unicode="+" 
d="M707 623v-385h-181v385h-362v170h362v385h181v-385h360v-170h-360z" />
    <glyph glyph-name="comma" unicode="," horiz-adv-x="614" 
d="M172 -98q53 9 81 30.5t28 49.5q0 13 -4.5 20.5t-11.5 12.5t-16.5 10t-19.5 12q-23 15 -36 37t-13 59q0 24 9.5 44.5t26 36t39 24t48.5 8.5t50 -9.5t42.5 -29t29.5 -49.5t11 -72q0 -135 -65.5 -203t-198.5 -84v103z" />
    <glyph glyph-name="hyphen" unicode="-" horiz-adv-x="565" 
d="M76 698h413v-178h-413v178z" />
    <glyph glyph-name="period" unicode="." horiz-adv-x="614" 
d="M307 -10q-26 0 -49 9.5t-40.5 27t-27.5 40.5t-10 50t10 50.5t27.5 41t40.5 27.5t49 10t49.5 -10t41 -27.5t28 -41t10.5 -50.5t-10.5 -50t-28 -40.5t-41 -27t-49.5 -9.5z" />
    <glyph glyph-name="slash" unicode="/" horiz-adv-x="688" 
d="M655 1470l-469 -1570h-159v47l467 1571h161v-48z" />
    <glyph glyph-name="zero" unicode="0" 
d="M614 -12q-105 0 -201.5 43.5t-170 133t-117 227t-43.5 325.5q0 187 43.5 324.5t117 227.5t170 133.5t201.5 43.5t201.5 -43.5t170 -133.5t117.5 -227.5t44 -324.5q0 -188 -44 -325.5t-117.5 -227t-170 -133t-201.5 -43.5zM614 147q69 0 125 31.5t96.5 99.5t62.5 175.5
t22 259.5q0 153 -22 261t-62.5 177t-96.5 101t-125 32t-125.5 -32t-97 -101t-62.5 -177t-22 -261q0 -152 22 -259.5t62.5 -175.5t97 -99.5t125.5 -31.5z" />
    <glyph glyph-name="one" unicode="1" 
d="M584 0v1198l-314 -176h-65v145l452 267h150v-1434h-223z" />
    <glyph glyph-name="two" unicode="2" 
d="M1073 0h-944v178l416 406q73 72 129 133t94 116.5t57 108t19 107.5q0 106 -64.5 166.5t-189.5 60.5q-58 0 -106.5 -10.5t-89 -28.5t-73.5 -41t-61 -47h-78v151q34 27 79 53t98.5 47t114.5 33.5t128 12.5q111 0 197 -25t145 -74.5t90 -122.5t31 -169q0 -78 -27 -149
t-75.5 -140.5t-115.5 -140t-147 -146.5l-319 -303h692v-176z" />
    <glyph glyph-name="three" unicode="3" 
d="M545 -12q-71 0 -131 9t-110.5 25t-92.5 38.5t-76 48.5v159h88q22 -22 52 -43t68.5 -37t85.5 -26t101 -10q74 0 133 17.5t100 51.5t63 83.5t22 113.5t-21.5 109t-61 73.5t-95.5 41.5t-125 13h-117v162h100q144 0 223.5 58.5t79.5 177.5q0 111 -63.5 169t-189.5 58
q-54 0 -100.5 -9t-85.5 -24t-70 -33.5t-54 -37.5h-82v145q76 54 176 89.5t230 35.5q105 0 188 -23t141 -69.5t88.5 -117t30.5 -165.5q0 -68 -19 -121t-53 -92t-80.5 -66t-101.5 -44v-7q64 -13 116 -39t89 -67t57.5 -96.5t20.5 -126.5q1 -102 -36.5 -181t-106 -133
t-165.5 -82t-216 -28z" />
    <glyph glyph-name="four" unicode="4" 
d="M752 0v334h-646v192l658 908h205v-940h170v-160h-170v-334h-217zM274 494h478v659h-9l-469 -653v-6z" />
    <glyph glyph-name="five" unicode="5" 
d="M1083 477q0 -114 -41 -204.5t-115 -153.5t-176.5 -97t-226.5 -34q-70 0 -127 9t-104.5 24t-86.5 35.5t-73 43.5v162h86q21 -21 49.5 -41t66 -35.5t84 -25.5t103.5 -10q76 0 138.5 21.5t107.5 62.5t69.5 100.5t24.5 134.5q0 77 -20.5 132t-57 90.5t-86 52t-106.5 16.5
q-53 0 -95.5 -11t-76 -28.5t-58.5 -39t-43 -42.5h-139v795h830v-179h-666v-430h6q18 16 46 33t65.5 31.5t83.5 23.5t100 9q90 0 169.5 -26.5t139.5 -81t94.5 -138.5t34.5 -199z" />
    <glyph glyph-name="six" unicode="6" 
d="M639 -12q-115 0 -213.5 41.5t-171 127.5t-113.5 217.5t-41 311.5q0 185 47 327t134 238t210.5 145.5t276.5 49.5q52 0 94 -4.5t77 -13t65 -20t59 -26.5v-165h-86q-29 24 -83.5 45.5t-135.5 21.5q-206 0 -315 -138.5t-119 -400.5q68 70 164.5 109t211.5 39q95 0 176.5 -27
t141 -81t93.5 -134.5t34 -187.5q0 -108 -36 -195.5t-102.5 -149.5t-160 -96t-207.5 -34zM647 737q-50 0 -96.5 -10.5t-88 -29t-77 -44t-63.5 -55.5q7 -122 31.5 -209t65 -142.5t96 -81.5t124.5 -26q73 0 127.5 22.5t90.5 63.5t53.5 100t17.5 132q0 71 -19.5 124t-56.5 87.5
t-89 51.5t-116 17z" />
    <glyph glyph-name="seven" unicode="7" 
d="M324 94l596 1155v6h-777v179h942v-195l-555 -1239h-206v94z" />
    <glyph glyph-name="eight" unicode="8" 
d="M614 -12q-129 0 -226.5 29t-163.5 82t-99 129t-33 171q0 70 20.5 128.5t58.5 104.5t91.5 79t118.5 51v6q-51 17 -93.5 45t-72.5 67t-46.5 88t-16.5 107q0 85 33 154t93 117t145.5 74t190.5 26t190.5 -26t146 -74t93.5 -117t33 -154q0 -58 -16.5 -107t-46.5 -88t-72.5 -67
t-93.5 -45v-6q66 -19 119 -52t90.5 -78.5t57.5 -104t20 -128.5q0 -95 -33.5 -171t-99 -129t-163 -82t-225.5 -29zM614 137q78 0 136 20.5t96.5 57.5t57 86.5t18.5 108.5t-19 109.5t-57.5 87.5t-96 58t-135.5 21t-135.5 -21t-96 -58t-57 -87.5t-18.5 -109.5t18.5 -108.5
t56 -86.5t95.5 -57.5t137 -20.5zM614 838q122 0 188 60t66 165q0 106 -66 167.5t-188 61.5q-123 0 -188.5 -61.5t-65.5 -167.5q0 -105 65.5 -165t188.5 -60z" />
    <glyph glyph-name="nine" unicode="9" 
d="M457 -12q-102 0 -175.5 16.5t-131.5 42.5v168h86q13 -12 34 -24t50.5 -21.5t66 -16t80.5 -6.5q113 0 194 35t133.5 103t78.5 167.5t30 229.5q-69 -68 -164.5 -104.5t-203.5 -36.5q-97 0 -180.5 26.5t-144.5 79.5t-95.5 133t-34.5 187t37 195.5t104 151.5t161.5 97.5
t209.5 34.5t213 -41.5t170 -127.5t112.5 -217.5t40.5 -311.5q0 -185 -44.5 -327t-130 -238t-210.5 -145.5t-286 -49.5zM584 696q48 0 93.5 10.5t86.5 28.5t76.5 42.5t64.5 53.5q-6 124 -30 212t-64 144t-95.5 81.5t-123.5 25.5q-73 0 -128 -23t-91.5 -65t-55 -101
t-18.5 -132q0 -72 20.5 -124t57.5 -86t89.5 -50.5t117.5 -16.5z" />
    <glyph glyph-name="colon" unicode=":" horiz-adv-x="614" 
d="M307 602q-27 0 -50.5 9.5t-41 27t-27.5 40.5t-10 50t10 50.5t27.5 41t41 27.5t50.5 10q26 0 49 -10t40.5 -27.5t27.5 -41t10 -50.5t-10 -50t-27.5 -40.5t-40.5 -27t-49 -9.5zM307 -10q-27 0 -50.5 9.5t-41 27t-27.5 40.5t-10 50t10 50.5t27.5 41t41 27.5t50.5 10
q26 0 49 -10t40.5 -27.5t27.5 -41t10 -50.5t-10 -50t-27.5 -40.5t-40.5 -27t-49 -9.5z" />
    <glyph glyph-name="semicolon" unicode=";" horiz-adv-x="614" 
d="M168 -98q53 9 80.5 30.5t27.5 49.5q0 13 -4 20.5t-11 12.5t-16.5 10t-19.5 12q-23 15 -36 37t-13 59q0 24 9.5 44.5t26 36t39 24t48.5 8.5t50 -9.5t42.5 -29t29.5 -49.5t11 -72q0 -135 -65.5 -203t-198.5 -84v103zM307 602q-27 0 -50.5 9.5t-41 27t-27.5 40.5t-10 50
t10 50.5t27.5 41t41 27.5t50.5 10q26 0 49 -10t40.5 -27.5t27.5 -41t10 -50.5t-10 -50t-27.5 -40.5t-40.5 -27t-49 -9.5z" />
    <glyph glyph-name="less" unicode="&#x3c;" 
d="M195 748l778 397h53v-158l-620 -307v-4l620 -311v-160h-53l-778 397v146z" />
    <glyph glyph-name="equal" unicode="=" 
d="M172 756v166h887v-166h-887zM172 367v165h887v-165h-887z" />
    <glyph glyph-name="greater" unicode="&#x3e;" 
d="M1034 602l-776 -397h-55v157l620 308v4l-620 311v160h55l776 -400v-143z" />
    <glyph glyph-name="question" unicode="?" horiz-adv-x="903" 
d="M274 369q-10 67 -7.5 119t19.5 98.5t50.5 92t85.5 99.5q34 34 67 69.5t59 73.5t42 81t16 94q0 88 -51.5 134t-142.5 46q-95 0 -158.5 -31t-101.5 -76h-86v162q30 24 66.5 45t80.5 36.5t96.5 24.5t114.5 9q94 0 169 -22t127.5 -65.5t80.5 -109.5t28 -153
q0 -65 -17.5 -116.5t-48 -97t-72.5 -87.5t-91 -86q-42 -39 -76.5 -73.5t-57 -72.5t-32.5 -84t-4 -110h-156zM360 -10q-27 0 -49.5 9.5t-39 27t-26 40.5t-9.5 50t9.5 50.5t26 41t39 27.5t49.5 10q26 0 49 -10t40.5 -27.5t27.5 -41t10 -50.5t-10 -50t-27.5 -40.5t-40.5 -27
t-49 -9.5z" />
    <glyph glyph-name="at" unicode="@" horiz-adv-x="1757" 
d="M881 -262q-102 0 -202 19t-190.5 58.5t-167 100.5t-132.5 145.5t-87.5 192.5t-31.5 242q0 140 35.5 258t97 214t144 169t178 122t198 74t203.5 25q155 0 293.5 -44t242.5 -129.5t165 -210.5t61 -286q0 -144 -40 -247.5t-105 -170.5t-148 -99t-170 -32q-59 0 -100.5 12
t-69.5 32.5t-43 48t-21 59.5q-24 -29 -53 -56.5t-64.5 -48.5t-77 -34t-89.5 -13q-54 0 -99 17.5t-77 52.5t-50 87.5t-18 121.5q0 93 32.5 187t92.5 170t144.5 123.5t189.5 47.5q39 0 69.5 -6t54.5 -16.5t43 -24.5t35 -29q22 32 46.5 50t66.5 18h66l-119 -518
q-6 -32 -6.5 -58.5t8 -46t28 -30.5t52.5 -11q52 0 100 23t84.5 73t58 128.5t21.5 189.5q0 126 -44 225t-123.5 167.5t-190.5 104.5t-246 36q-86 0 -170 -20t-161 -60t-142.5 -100.5t-113.5 -141t-75.5 -181.5t-27.5 -222q0 -166 50.5 -284t138 -193t205 -109.5t251.5 -34.5
q151 0 281 36.5t222 104.5h56v-129q-46 -34 -107.5 -61.5t-133.5 -47t-153 -30t-165 -10.5zM762 279q34 0 64.5 10.5t59 29t55 42.5t50.5 51l82 360q-12 6 -24.5 12t-27.5 10.5t-33.5 7.5t-43.5 3q-63 0 -117 -33t-93.5 -87t-62 -124t-22.5 -143q0 -72 32.5 -105.5
t80.5 -33.5z" />
    <glyph glyph-name="A" unicode="A" horiz-adv-x="1309" 
d="M63 68l474 1366h237l471 -1366v-68h-211l-133 401h-526l-129 -401h-183v68zM428 565h418l-207 633h-4z" />
    <glyph glyph-name="B" unicode="B" horiz-adv-x="1204" 
d="M158 1434h440q110 0 197 -20.5t147.5 -64.5t92.5 -114t32 -170q0 -68 -18 -118.5t-51 -87.5t-78 -61t-99 -38v-6q65 -14 121 -39t97 -66.5t64 -100.5t23 -140q0 -102 -35 -178.5t-100 -127.5t-159 -76.5t-211 -25.5h-463v1434zM614 168q133 0 209 62.5t76 187.5
q0 126 -77 188t-216 62h-229v-500h237zM590 829q59 0 106.5 12.5t80.5 39.5t51 69t18 101q0 58 -18 99t-51 66.5t-80 37.5t-105 12h-215v-437h213z" />
    <glyph glyph-name="C" unicode="C" horiz-adv-x="1255" 
d="M725 -12q-143 0 -260.5 48.5t-201 141.5t-129.5 229t-46 310t50 309.5t138 228.5t207.5 142t259.5 49q77 0 136.5 -8t108 -23t89 -36.5t80.5 -47.5v-174h-86q-25 25 -56 46.5t-70 37.5t-87 25.5t-108 9.5q-98 0 -178 -35.5t-137 -105t-88.5 -172.5t-31.5 -238
q0 -284 110 -426.5t308 -142.5q68 0 123 12.5t99 33.5t80 49t67 60h72v-170q-37 -32 -83 -60t-101.5 -48.5t-121 -32.5t-143.5 -12z" />
    <glyph glyph-name="D" unicode="D" horiz-adv-x="1368" 
d="M158 1434h409q174 0 308 -41t225 -128t137.5 -222t46.5 -322q0 -186 -47 -322t-138.5 -224.5t-226.5 -131.5t-311 -43h-403v1434zM561 168q127 0 220 30.5t154 96.5t90.5 170.5t29.5 253.5q0 147 -29.5 251t-90.5 169t-154 95t-220 30h-182v-1096h182z" />
    <glyph glyph-name="E" unicode="E" horiz-adv-x="1139" 
d="M158 1434h878v-172h-657v-447h481v-164h-481v-483h680v-168h-901v1434z" />
    <glyph glyph-name="F" unicode="F" horiz-adv-x="1116" 
d="M158 0v1434h882v-172h-661v-480h502v-166h-502v-616h-221z" />
    <glyph glyph-name="G" unicode="G" horiz-adv-x="1354" 
d="M733 -12q-151 0 -271.5 47t-205 139t-129.5 228t-45 315q0 178 49 314t137.5 228.5t213 139.5t276.5 47q69 0 125 -6.5t103.5 -19t90 -30.5t84.5 -40v-185h-80q-27 24 -57.5 44t-68.5 34.5t-85.5 22.5t-107.5 8q-101 0 -183 -31.5t-140 -98t-90 -170.5t-32 -249
q0 -290 106.5 -432.5t309.5 -142.5q95 0 155.5 14.5t104.5 36.5v370h-239v156h460v-629q-91 -49 -209.5 -79.5t-271.5 -30.5z" />
    <glyph glyph-name="H" unicode="H" horiz-adv-x="1395" 
d="M158 0v1434h221v-615h637v615h223v-1434h-223v651h-637v-651h-221z" />
    <glyph glyph-name="I" unicode="I" horiz-adv-x="549" 
d="M162 0v1434h225v-1434h-225z" />
    <glyph glyph-name="J" unicode="J" horiz-adv-x="905" 
d="M344 -14q-102 0 -172 21.5t-123 53.5v170h78q15 -14 33.5 -27t43 -24t56.5 -17.5t74 -6.5q99 0 147.5 52t48.5 152v1074h226v-1078q0 -176 -101.5 -273t-310.5 -97z" />
    <glyph glyph-name="K" unicode="K" horiz-adv-x="1294" 
d="M158 1434h221v-713l620 713h181v-68l-451 -510l500 -788v-68h-207l-438 694l-205 -223v-471h-221v1434z" />
    <glyph glyph-name="L" unicode="L" horiz-adv-x="1096" 
d="M158 0v1434h221v-1266h639v-168h-860z" />
    <glyph glyph-name="M" unicode="M" horiz-adv-x="1690" 
d="M158 1434h309l379 -1088h4l379 1088h303v-1434h-221v1169h-6l-410 -1169h-139l-406 1169h-8v-1169h-184v1434z" />
    <glyph glyph-name="N" unicode="N" horiz-adv-x="1391" 
d="M158 1434h256l624 -1055h4v1055h193v-1434h-205l-678 1149h-4v-1149h-190v1434z" />
    <glyph glyph-name="O" unicode="O" horiz-adv-x="1462" 
d="M731 -12q-131 0 -249 47.5t-207 139.5t-141 228.5t-52 313.5t52 313t141 228.5t207 140t249 47.5q87 0 169 -21.5t153.5 -63t131.5 -103.5t102.5 -143t66.5 -180.5t24 -217.5t-24 -218t-66.5 -181t-102.5 -143t-131.5 -103.5t-153.5 -62.5t-169 -21zM731 154q90 0 167 34
t133 103t88 174t32 248t-32 249.5t-88 177t-133 105.5t-167 35q-91 0 -168 -35t-133 -105.5t-87.5 -177t-31.5 -249.5t31.5 -248t87.5 -174t133 -103t168 -34z" />
    <glyph glyph-name="P" unicode="P" horiz-adv-x="1174" 
d="M158 1434h417q124 0 222 -24.5t166 -77.5t104.5 -136t36.5 -199t-36 -200t-104.5 -138t-167.5 -80t-225 -26h-192v-553h-221v1434zM379 715h192q160 0 234 67t74 211q0 72 -18 123.5t-56 84.5t-96 48t-138 15h-192v-549z" />
    <glyph glyph-name="Q" unicode="Q" horiz-adv-x="1464" 
d="M670 -37q-134 39 -242.5 100t-185.5 152t-118.5 214.5t-41.5 287.5q0 177 52 313.5t141 228.5t207 139.5t249 47.5t248.5 -47.5t206 -139.5t140.5 -228.5t52 -313.5q0 -134 -31.5 -244.5t-88.5 -195t-137.5 -142.5t-178.5 -86v-4l479 -90v-176h-94zM731 150
q91 0 168 34.5t133 104t87.5 175.5t31.5 249q0 144 -32 250.5t-88 177t-133 105t-167 34.5q-91 0 -168 -34.5t-133 -105t-87.5 -177t-31.5 -250.5q0 -143 32 -249t88.5 -175.5t133 -104t166.5 -34.5z" />
    <glyph glyph-name="R" unicode="R" horiz-adv-x="1255" 
d="M651 600q-15 -2 -32 -2h-35h-203v-598h-221v1434h424q119 0 214 -24t161 -74.5t101.5 -127.5t35.5 -182q0 -149 -61.5 -242.5t-174.5 -140.5l309 -575v-68h-202zM381 762h197q73 0 127.5 13.5t91 43.5t55 78t18.5 117q0 133 -75.5 191.5t-216.5 58.5h-197v-502z" />
    <glyph glyph-name="S" unicode="S" horiz-adv-x="1065" 
d="M496 -12q-76 0 -139 9t-115.5 24.5t-97.5 38t-85 49.5v180h78q25 -26 58 -50t76 -42t97 -28.5t121 -10.5q140 0 217.5 57t77.5 174q0 67 -25.5 107.5t-69.5 67t-103.5 43.5t-126.5 36q-95 28 -166 62.5t-118 82.5t-71 112t-24 151q0 93 32 166.5t91.5 124.5t144 77.5
t189.5 26.5q129 0 222.5 -27.5t158.5 -68.5v-174h-76q-28 22 -59 40.5t-67 31.5t-78 20.5t-93 7.5q-138 0 -204.5 -54.5t-66.5 -154.5q0 -56 19.5 -93t56.5 -62.5t89.5 -43t117.5 -34.5q110 -30 191 -63.5t134.5 -81t80 -114t26.5 -163.5q0 -105 -33.5 -184t-96.5 -132.5
t-154.5 -80.5t-208.5 -27z" />
    <glyph glyph-name="T" unicode="T" horiz-adv-x="1167" 
d="M471 0v1266h-412v168h1047v-168h-412v-1266h-223z" />
    <glyph glyph-name="U" unicode="U" horiz-adv-x="1380" 
d="M715 164q72 0 130.5 16.5t100 57.5t64 110t22.5 174v912h199v-906q0 -273 -131.5 -406.5t-397.5 -133.5q-126 0 -228 33t-174 100.5t-111 168.5t-39 238v906h223v-912q0 -107 25 -176t70.5 -109.5t108.5 -56.5t138 -16z" />
    <glyph glyph-name="V" unicode="V" horiz-adv-x="1296" 
d="M61 1366v68h209l385 -1160h4l388 1160h188v-68l-473 -1366h-232z" />
    <glyph glyph-name="W" unicode="W" horiz-adv-x="1812" 
d="M66 1366v68h210l256 -1125h5l282 1125h197l280 -1125h4l256 1125h191v-68l-338 -1366h-235l-263 1081h-4l-268 -1081h-236z" />
    <glyph glyph-name="X" unicode="X" horiz-adv-x="1280" 
d="M78 72l418 676l-402 614v72h209l350 -549l328 549h180v-72l-385 -629l426 -661v-72h-207l-379 598l-360 -598h-178v72z" />
    <glyph glyph-name="Y" unicode="Y" horiz-adv-x="1190" 
d="M494 0v573l-439 789v72h203l352 -650h2l344 650h179v-72l-420 -782v-580h-221z" />
    <glyph glyph-name="Z" unicode="Z" horiz-adv-x="1108" 
d="M55 178l752 1082v6h-696v168h931v-183l-749 -1081v-6h741v-164h-979v178z" />
    <glyph glyph-name="bracketleft" unicode="[" horiz-adv-x="645" 
d="M158 1518h417v-148h-219v-1323h219v-147h-417v1618z" />
    <glyph glyph-name="backslash" unicode="\" horiz-adv-x="688" 
d="M33 1518h160l469 -1571v-47h-162l-467 1570v48z" />
    <glyph glyph-name="bracketright" unicode="]" horiz-adv-x="643" 
d="M485 -100h-417v147h221v1323h-221v148h417v-1618z" />
    <glyph glyph-name="asciicircum" unicode="^" horiz-adv-x="854" 
d="M45 993l297 441h172l295 -441v-57h-170l-209 305h-6l-209 -305h-170v57z" />
    <glyph glyph-name="underscore" unicode="_" horiz-adv-x="729" 
d="M10 -332v144h709v-144h-709z" />
    <glyph glyph-name="grave" unicode="`" horiz-adv-x="834" 
d="M369 1161l-193 205v68h209l102 -224v-49h-118z" />
    <glyph glyph-name="a" unicode="a" horiz-adv-x="1057" 
d="M846 0q-31 0 -52.5 5t-35.5 18.5t-22.5 36.5t-12.5 59q-60 -65 -136 -98t-184 -33q-73 0 -134.5 20.5t-106 60.5t-69.5 100t-25 138q0 82 31 143.5t86 102t131.5 60.5t166.5 20q69 0 123.5 -7.5t110.5 -21.5v141q0 96 -54.5 139.5t-160.5 43.5q-96 0 -169 -25.5
t-124 -62.5h-66v155q36 18 76 34.5t87.5 29t102 20.5t119.5 8q95 0 169.5 -18t125.5 -57.5t78 -101.5t27 -150v-760h-82zM471 131q42 0 77 9.5t65 26t55.5 39t48.5 48.5v227q-45 10 -94 15.5t-105 5.5q-54 0 -99 -10.5t-77.5 -32.5t-51 -56.5t-18.5 -83.5q0 -50 15 -85.5
t41.5 -58.5t63 -33.5t79.5 -10.5z" />
    <glyph glyph-name="b" unicode="b" horiz-adv-x="1169" 
d="M346 934q30 30 66.5 57.5t79.5 49t93.5 34t108.5 12.5q75 0 147.5 -27t129 -89.5t91 -165t34.5 -254.5q0 -157 -39 -264.5t-102 -174t-143 -95.5t-163 -29q-112 0 -191 31t-134 83q-17 -45 -44.5 -73.5t-56.5 -28.5h-86v1434h115q30 0 48.5 -5t28.5 -20t13.5 -42.5
t3.5 -72.5v-360zM618 920q-39 0 -76.5 -10.5t-72 -27.5t-65.5 -39t-58 -46v-557q48 -50 106.5 -74.5t141.5 -24.5q53 0 104.5 16t92.5 59.5t66.5 119t25.5 194.5q0 118 -22.5 194t-59.5 119.5t-85 60t-98 16.5z" />
    <glyph glyph-name="c" unicode="c" horiz-adv-x="1001" 
d="M588 -12q-122 0 -218.5 37.5t-163 108.5t-101.5 172t-35 229q0 129 40 231.5t110.5 173.5t167 109t210.5 38q62 0 111.5 -8t88.5 -20.5t69 -27.5t53 -30v-163h-86q-17 17 -40 33t-52.5 28t-65.5 19.5t-80 7.5q-69 0 -126.5 -26t-99 -75.5t-64.5 -122.5t-23 -167
q0 -97 21.5 -170t62 -121.5t97.5 -72.5t128 -24q52 0 93 9t72.5 24t54.5 33.5t40 36.5h78v-152q-23 -18 -56 -37.5t-75.5 -35.5t-95 -26.5t-115.5 -10.5z" />
    <glyph glyph-name="d" unicode="d" horiz-adv-x="1171" 
d="M895 0q-18 0 -30 6t-20.5 21.5t-13 44t-6.5 73.5q-27 -33 -62.5 -61.5t-77.5 -50t-91.5 -33.5t-104.5 -12q-84 0 -159 30.5t-131.5 95.5t-89.5 165.5t-33 240.5q0 157 39 265.5t101.5 175.5t141.5 96.5t160 29.5q55 0 100 -8t82 -22t67 -34.5t56 -45.5v457h115
q31 0 49.5 -5t28.5 -20t13 -42.5t3 -72.5v-1294h-137zM541 141q88 0 155 39t127 105v544q-46 44 -104 67.5t-141 23.5q-53 0 -105.5 -17t-93.5 -60.5t-66.5 -119t-25.5 -193.5q0 -110 19 -184t53 -120t80.5 -65.5t101.5 -19.5z" />
    <glyph glyph-name="e" unicode="e" horiz-adv-x="1077" 
d="M285 496q4 -95 27 -162t64 -109t100 -61t134 -19q103 0 175.5 29t121.5 70h68v-146q-29 -20 -66.5 -39.5t-85.5 -35.5t-108 -25.5t-135 -9.5q-123 0 -218 38t-160 108.5t-98.5 171t-33.5 226.5q0 128 37.5 231t103 175t155 110.5t193.5 38.5q106 0 189.5 -31.5t141 -95.5
t88 -161.5t30.5 -229.5q0 -21 -1 -44t-1 -29h-721zM559 944q-52 0 -97.5 -16.5t-81 -53.5t-59.5 -96.5t-32 -144.5h512q-2 87 -19 146t-48 96t-75.5 53t-99.5 16z" />
    <glyph glyph-name="f" unicode="f" horiz-adv-x="649" 
d="M41 1071h129v92q0 75 20.5 128.5t59 88.5t92 51.5t119.5 16.5q56 0 92.5 -6.5t62.5 -16.5v-131h-90q-35 0 -62 -6t-46 -22t-29 -42.5t-10 -68.5v-84h219v-147h-219v-924h-209v924h-129v147z" />
    <glyph glyph-name="g" unicode="g" horiz-adv-x="1169" 
d="M1032 37q0 -95 -35 -166t-99.5 -119t-155.5 -72t-203 -24q-140 0 -242 26t-170 64v158h68q52 -41 132.5 -66.5t182.5 -25.5q73 0 131 13t98.5 42t62 74t21.5 110v115q-57 -60 -140 -99.5t-189 -39.5q-82 0 -157.5 28t-133.5 89t-92.5 157.5t-34.5 233.5q0 150 38.5 255
t102 171t144.5 96t165 30q107 0 182.5 -32t129.5 -84q9 43 32 71.5t66 28.5h96v-1034zM549 180q41 0 79 10.5t72.5 28.5t65 42.5t57.5 51.5v512q-49 47 -106.5 71t-138.5 24q-53 0 -105.5 -16t-93.5 -57.5t-66.5 -113t-25.5 -182.5q0 -108 19.5 -179t54 -114t82.5 -60.5
t106 -17.5z" />
    <glyph glyph-name="h" unicode="h" horiz-adv-x="1159" 
d="M346 936q39 31 86 58.5t99 48t109 32.5t116 12q56 0 105.5 -13t87 -46.5t59.5 -90.5t22 -144v-793h-209v743q0 50 -11 83t-31.5 52.5t-50.5 27t-69 7.5q-44 0 -85.5 -9.5t-81.5 -24.5t-76.5 -34t-69.5 -38v-807h-209v1434h115q30 0 48.5 -5t28.5 -20t13.5 -42.5
t3.5 -72.5v-358z" />
    <glyph glyph-name="i" unicode="i" horiz-adv-x="492" 
d="M139 0v1071h117q31 0 49 -6t27.5 -23t12.5 -48.5t3 -82.5v-911h-209zM246 1190q-25 0 -47 9.5t-39 25.5t-27 37.5t-10 46.5t10 47.5t27 39t39 26.5t47 10q24 0 46.5 -10t39.5 -26.5t27 -39t10 -47.5t-10 -46.5t-27 -37.5t-39.5 -25.5t-46.5 -9.5z" />
    <glyph glyph-name="j" unicode="j" horiz-adv-x="492" 
d="M-51 -195h59q72 0 101.5 36.5t29.5 111.5v1118h117q30 0 48 -6t28 -23t13 -48.5t3 -82.5v-970q0 -144 -68.5 -212.5t-201.5 -68.5q-40 0 -70.5 3.5t-58.5 12.5v129zM246 1190q-25 0 -47 9.5t-39 25.5t-27 37.5t-10 46.5t10 47.5t27 39t39 26.5t47 10q24 0 46.5 -10
t39.5 -26.5t27 -39t10 -47.5t-10 -46.5t-27 -37.5t-39.5 -25.5t-46.5 -9.5z" />
    <glyph glyph-name="k" unicode="k" horiz-adv-x="1057" 
d="M346 569l438 502h174v-61l-331 -369l366 -578v-63h-190l-318 496l-139 -154v-342h-209v1434h115q30 0 48.5 -5t28.5 -20t13.5 -42.5t3.5 -72.5v-725z" />
    <glyph glyph-name="l" unicode="l" horiz-adv-x="489" 
d="M139 0v1434h117q31 0 49.5 -5t28.5 -20t13 -42.5t3 -72.5v-1294h-211z" />
    <glyph glyph-name="m" unicode="m" horiz-adv-x="1772" 
d="M268 1071q19 0 33 -5t23.5 -19.5t14.5 -40t7 -66.5q36 28 79 55t92 47t102 32.5t110 12.5q42 0 80 -8t70.5 -26.5t57 -48t38.5 -72.5q40 33 86 61.5t97 49t105.5 32.5t110.5 12q55 0 103.5 -14.5t84.5 -47.5t57 -87.5t21 -134.5v-803h-206v748q0 46 -10 78t-29.5 51
t-47.5 27.5t-65 8.5q-42 0 -81 -9t-75 -23t-69.5 -32.5t-63.5 -37.5v-811h-209v748q0 93 -38.5 129t-110.5 36q-42 0 -81 -8.5t-74.5 -22.5t-69 -32.5t-64.5 -38.5v-811h-209v1071h131z" />
    <glyph glyph-name="n" unicode="n" horiz-adv-x="1159" 
d="M268 1071q19 0 33 -5t23.5 -20t14.5 -41.5t7 -68.5q39 31 86 58.5t99 48t109 32.5t116 12q56 0 105.5 -13t87 -46.5t59.5 -90.5t22 -144v-793h-209v743q0 50 -11 83t-31.5 52.5t-50.5 27t-69 7.5q-44 0 -85.5 -9.5t-81.5 -24.5t-76.5 -34t-69.5 -38v-807h-209v1071h131z
" />
    <glyph glyph-name="o" unicode="o" horiz-adv-x="1163" 
d="M582 -12q-109 0 -202.5 37.5t-162.5 107.5t-108 171t-39 228q0 128 39 231t108 175t162.5 110.5t202.5 38.5t202.5 -38.5t162.5 -110.5t108 -175t39 -231q0 -127 -39 -228t-108 -171t-162.5 -107.5t-202.5 -37.5zM582 145q68 0 123.5 24t94.5 72.5t60 121t21 169.5
t-21 171.5t-60 124.5t-94.5 76t-123.5 26t-123 -26t-94 -76t-60.5 -124.5t-21.5 -171.5t21.5 -169.5t60.5 -121t94 -72.5t123 -24z" />
    <glyph glyph-name="p" unicode="p" horiz-adv-x="1169" 
d="M643 6q-101 0 -172 26t-125 70v-434h-209v1403h131q19 0 33 -5t23.5 -20t14.5 -42t7 -70q30 30 66 57.5t78.5 49t93 34t110.5 12.5q75 0 147.5 -27t129 -89.5t91 -163.5t34.5 -248q0 -155 -39.5 -260.5t-103.5 -170.5t-145 -93.5t-165 -28.5zM621 920q-39 0 -76.5 -10.5
t-72.5 -27.5t-66.5 -39t-59.5 -46v-543q48 -48 106.5 -71t139.5 -23q55 0 107.5 16t93 58t65.5 115.5t25 189.5q0 114 -22.5 188t-59.5 117t-84 59.5t-96 16.5z" />
    <glyph glyph-name="q" unicode="q" horiz-adv-x="1169" 
d="M823 145q-27 -30 -62 -55t-76.5 -44t-88.5 -29.5t-98 -10.5q-84 0 -160.5 29t-134.5 91.5t-92.5 160.5t-34.5 237q0 156 39 263.5t102.5 174t144 96t164.5 29.5q108 0 183 -32.5t129 -85.5q11 45 35.5 73.5t62.5 28.5h96v-1403h-209v477zM549 160q83 0 151.5 38t122.5 97
v530q-47 46 -105 70.5t-143 24.5q-54 0 -105.5 -17t-92 -59.5t-65.5 -115.5t-25 -185q0 -110 18.5 -183.5t53 -118t83 -63t107.5 -18.5z" />
    <glyph glyph-name="r" unicode="r" horiz-adv-x="768" 
d="M664 903q-55 0 -102 -10.5t-86.5 -27.5t-72 -39t-57.5 -44v-782h-209v1071h131q19 0 33 -5.5t23.5 -21t14.5 -44.5t7 -76q27 31 59.5 59t71 50t82.5 35t94 13q19 0 33.5 -2.5t24.5 -5.5v-172q-11 0 -21 1q-8 0 -15.5 0.5t-10.5 0.5z" />
    <glyph glyph-name="s" unicode="s" horiz-adv-x="907" 
d="M428 -10q-66 0 -119 8t-95 21.5t-75.5 30t-60.5 34.5v162h67q19 -18 45 -35t60 -30.5t76 -22t92 -8.5q223 0 223 155q0 34 -10.5 58.5t-36.5 43t-69.5 31.5t-108.5 23q-81 12 -144 33.5t-106 58t-65.5 89.5t-22.5 128q0 76 27 134.5t77 98t121 60t160 20.5
q113 0 187.5 -22t127.5 -53v-160h-67q-39 31 -98.5 53.5t-147.5 22.5q-103 0 -152 -34.5t-49 -103.5q0 -32 12 -55t39 -40t70.5 -29t106.5 -21q88 -13 153 -35.5t108 -59.5t64 -91.5t21 -130.5t-24.5 -138t-75 -105.5t-128 -67t-182.5 -23.5z" />
    <glyph glyph-name="t" unicode="t" horiz-adv-x="680" 
d="M41 1071h129v291h209v-291h237v-147h-237v-635q0 -42 9 -70.5t27.5 -45t47.5 -23.5t69 -7h97v-135q-29 -8 -72.5 -14t-97.5 -6q-69 0 -122.5 15t-90.5 48t-56.5 85.5t-19.5 127.5v660h-129v147z" />
    <glyph glyph-name="u" unicode="u" horiz-adv-x="1171" 
d="M512 150q41 0 81.5 9t79 23t74.5 32.5t68 37.5v819h209v-1071h-131q-18 0 -31.5 4t-22.5 17t-14.5 37t-7.5 63q-40 -29 -85.5 -53.5t-95 -42.5t-101.5 -28.5t-105 -10.5q-63 0 -116.5 14t-93 47.5t-61.5 88.5t-22 136v799h209v-752q0 -51 12 -84t34 -52t52.5 -26t67.5 -7
z" />
    <glyph glyph-name="v" unicode="v" horiz-adv-x="1081" 
d="M55 1012v59h195l303 -819h4l289 819h180v-59l-379 -1012h-203z" />
    <glyph glyph-name="w" unicode="w" horiz-adv-x="1548" 
d="M59 1010v61h195l215 -774h4l234 774h163l232 -774h4l213 774h170v-61l-295 -1010h-186l-230 766h-4l-233 -766h-185z" />
    <glyph glyph-name="x" unicode="x" horiz-adv-x="1055" 
d="M63 61l324 488l-309 461v61h194l263 -399l241 399h172v-61l-286 -451l327 -498v-61h-192l-285 440l-272 -440h-177v61z" />
    <glyph glyph-name="y" unicode="y" horiz-adv-x="1077" 
d="M309 -272l148 333l-402 953v57h197l305 -752h2l285 752h180v-57l-535 -1346h-180v60z" />
    <glyph glyph-name="z" unicode="z" horiz-adv-x="977" 
d="M76 154l598 764h-561v153h794v-153l-600 -762h586v-156h-817v154z" />
    <glyph glyph-name="braceleft" unicode="{" horiz-adv-x="705" 
d="M223 532q0 48 -28.5 81.5t-88.5 33.5h-51v148h51q60 0 88.5 33.5t28.5 82.5v357q0 124 65.5 187t196.5 63h152v-148h-125q-43 0 -66.5 -28.5t-23.5 -71.5v-350q0 -79 -36.5 -126t-117.5 -69v-4q81 -22 117.5 -70t36.5 -127v-374q0 -44 23.5 -73.5t66.5 -29.5h125v-147
h-152q-131 0 -196.5 64t-65.5 188v380z" />
    <glyph glyph-name="bar" unicode="|" horiz-adv-x="399" 
d="M283 -100h-168v1618h168v-1618z" />
    <glyph glyph-name="braceright" unicode="}" horiz-adv-x="705" 
d="M481 152q0 -124 -64.5 -188t-195.5 -64h-153v147h122q44 0 69.5 29.5t25.5 73.5v374q0 79 36 127t117 70v4q-81 22 -117 69t-36 126v350q0 43 -25.5 71.5t-69.5 28.5h-122v148h153q131 0 195.5 -63t64.5 -187v-357q0 -24 6.5 -45.5t21 -37t36.5 -24.5t53 -9h49v-148h-49
q-62 0 -89.5 -33.5t-27.5 -81.5v-380z" />
    <glyph glyph-name="asciitilde" unicode="~" horiz-adv-x="754" 
d="M55 530q9 39 25.5 73.5t41 59.5t57 39.5t71.5 14.5q37 0 72 -10.5t66.5 -22.5t58 -22.5t47.5 -10.5q55 0 73 74h129v-70q-8 -40 -24.5 -74t-41 -59t-56.5 -39t-72 -14q-35 0 -69 10.5t-65.5 22.5t-59 22.5t-48.5 10.5q-31 0 -48.5 -19t-27.5 -57h-129v71z" />
    <glyph glyph-name="uni00A0" unicode="&#xa0;" horiz-adv-x="614" 
 />
    <glyph glyph-name="exclamdown" unicode="&#xa1;" horiz-adv-x="543" 
d="M383 -18v-134h-223v134l39 933h145zM272 1294q26 0 49 -9.5t40 -27t26.5 -40.5t9.5 -50t-9.5 -50.5t-26.5 -41t-40 -27.5t-49 -10t-49 10t-40.5 27.5t-27.5 41t-10 50.5t10 50t27.5 40.5t40.5 27t49 9.5z" />
    <glyph glyph-name="cent" unicode="&#xa2;" 
d="M1057 98q-20 -16 -47.5 -32.5t-63 -31t-78.5 -25.5t-94 -15v-205h-137v203q-111 8 -199.5 49.5t-149.5 111t-93.5 166.5t-32.5 216q0 118 35.5 214t98.5 166.5t150 112.5t191 53v121h137v-119q50 -4 91 -12.5t74.5 -20t60 -25t47.5 -26.5v-157h-86q-28 26 -73.5 50
t-113.5 34v-781q39 6 71 16.5t57.5 24t44.5 29.5t34 31h76v-148zM371 535q0 -174 69 -272t197 -118v779q-62 -10 -111 -41t-83.5 -80.5t-53 -116.5t-18.5 -151z" />
    <glyph glyph-name="sterling" unicode="&#xa3;" 
d="M137 154q36 17 66.5 41t53 57.5t35.5 77t13 98.5q0 54 -6.5 106t-17.5 103h-136v149h103q-14 63 -24.5 125t-10.5 125q0 97 35.5 173t99 128.5t151.5 80.5t193 28q62 0 114.5 -8t97 -22t82.5 -35t73 -46v-161h-80q-26 22 -55.5 41t-63.5 32.5t-74 21t-88 7.5
q-60 0 -109.5 -15t-84 -44.5t-53.5 -73t-19 -101.5q0 -61 9 -125.5t22 -130.5h379v-149h-355q8 -51 13.5 -101t5.5 -104q0 -88 -31 -149.5t-78 -106.5h688v-176h-948v154z" />
    <glyph glyph-name="yen" unicode="&#xa5;" 
d="M168 748h283l-345 616v70h199l328 -617h4l317 617h170v-70l-333 -616h288v-132h-346v-124h346v-134h-346v-358h-219v358h-346v134h346v124h-346v132z" />
    <glyph glyph-name="brokenbar" unicode="&#xa6;" horiz-adv-x="342" 
d="M86 633h170l-2 -733h-168v733zM86 1518h168l2 -721h-170v721z" />
    <glyph glyph-name="section" unicode="&#xa7;" horiz-adv-x="1055" 
d="M63 582q0 57 15.5 101.5t44 78.5t69 58.5t89.5 39.5q-66 45 -94.5 106.5t-28.5 155.5q0 72 26.5 132t76.5 102.5t122 66t164 23.5q61 0 111 -6.5t90.5 -17.5t72 -25.5t56.5 -30.5v-158h-68q-37 29 -100 53.5t-156 24.5q-100 0 -156.5 -40.5t-56.5 -112.5q0 -34 13 -62
t42 -51t77 -42t118 -36q94 -24 167.5 -53t124 -70.5t77 -98t26.5 -134.5q0 -45 -11.5 -86.5t-36 -78t-64.5 -66t-97 -50.5q60 -40 92.5 -96.5t32.5 -145.5q0 -74 -25.5 -135.5t-77.5 -105.5t-131 -68t-186 -24q-66 0 -120.5 8t-99 21t-79.5 29.5t-63 33.5v162h67
q19 -18 48.5 -35t67.5 -31t83 -22.5t94 -8.5q107 0 163 39t56 117q0 39 -14.5 66t-47.5 49t-86.5 40.5t-131.5 41.5q-89 26 -156 56.5t-111 71t-66 93t-22 121.5zM481 418q35 -11 69.5 -20.5t63.5 -20.5q87 20 134 65.5t47 114.5q0 80 -63 125.5t-189 77.5q-26 6 -50 13
t-47 13q-103 -14 -149.5 -59.5t-46.5 -110.5q0 -35 12 -63.5t39.5 -52.5t71.5 -44t108 -38z" />
    <glyph glyph-name="dieresis" unicode="&#xa8;" horiz-adv-x="834" 
d="M240 1190q-24 0 -45.5 9t-37 24.5t-25 36.5t-9.5 45t9.5 44.5t25 36t37 24.5t45.5 9t45.5 -9t37 -24.5t24.5 -36t9 -44.5t-9 -45t-24.5 -36.5t-37 -24.5t-45.5 -9zM592 1190q-24 0 -45 9t-36.5 24.5t-24.5 36.5t-9 45t9 44.5t24.5 36t36.5 24.5t45 9t45 -9t37 -24.5
t25.5 -36t9.5 -44.5t-9.5 -45t-25.5 -36.5t-37 -24.5t-45 -9z" />
    <glyph glyph-name="copyright" unicode="&#xa9;" horiz-adv-x="1587" 
d="M793 -14q-94 0 -183.5 21.5t-168 63t-144.5 103.5t-113 143t-73.5 181.5t-26.5 218.5t26.5 218.5t73.5 181.5t113 143t144.5 103.5t168 63t183.5 21.5q143 0 271.5 -47.5t226 -140.5t155 -229.5t57.5 -313.5t-57.5 -313.5t-155 -229.5t-226 -140.5t-271.5 -47.5zM793 78
q126 0 236 42t191.5 123.5t129 200.5t47.5 273q0 153 -47.5 272.5t-129 201.5t-191.5 124.5t-236 42.5q-125 0 -234.5 -42.5t-191.5 -124.5t-129.5 -201.5t-47.5 -272.5q0 -154 47.5 -273t129.5 -200.5t191.5 -123.5t234.5 -42zM813 317q-91 0 -162.5 27.5t-121 79.5
t-75.5 126.5t-26 168.5t29.5 168.5t82 126.5t124.5 80t157 28q48 0 85 -6t66.5 -15t51.5 -19.5t39 -20.5v-135h-74q-23 26 -62.5 45.5t-105.5 19.5q-49 0 -89.5 -18t-69 -52.5t-44.5 -85.5t-16 -118q0 -137 57 -202.5t160 -65.5q37 0 66 6.5t51.5 16.5t38 23t26.5 25h68
v-121q-17 -14 -41.5 -28.5t-56.5 -26.5t-71.5 -19.5t-86.5 -7.5z" />
    <glyph glyph-name="ordfeminine" unicode="&#xaa;" horiz-adv-x="893" 
d="M709 528q-25 0 -42 5t-28 16.5t-18 30.5t-11 47q-51 -54 -116 -81.5t-152 -27.5q-61 0 -113 16.5t-90.5 50t-60 83.5t-21.5 118q0 70 26 122.5t72.5 87t111 52t141.5 17.5q57 0 104.5 -6t93.5 -19v105q0 83 -44 117t-138 34q-81 0 -140.5 -20t-101.5 -51h-61v143
q30 15 65 29.5t76.5 25t90 17t104.5 6.5q81 0 145 -15t107.5 -48.5t66.5 -88t23 -133.5v-633h-90zM406 649q68 0 115 26.5t85 69.5v185q-37 6 -75.5 11t-81.5 5q-46 0 -83.5 -8t-64 -26t-41 -46.5t-14.5 -68.5q0 -41 11.5 -69t32.5 -45.5t50.5 -25.5t65.5 -8z" />
    <glyph glyph-name="guillemotleft" unicode="&#xab;" horiz-adv-x="977" 
d="M80 485v93l270 399h164v-55l-252 -385v-5l252 -391v-53h-164zM461 485v93l270 399h166v-55l-254 -385v-5l254 -391v-53h-166z" />
    <glyph glyph-name="registered" unicode="&#xae;" horiz-adv-x="829" 
d="M414 717q-72 0 -138.5 24.5t-117.5 71.5t-82 115t-31 155q0 88 31 156t82 115t117.5 71.5t138.5 24.5q70 0 136.5 -24.5t118 -71.5t82.5 -115t31 -156q0 -87 -31 -155t-82.5 -115t-118 -71.5t-136.5 -24.5zM414 786q60 0 112 19t90.5 56t61 92.5t22.5 129.5t-22.5 129.5
t-61 93t-90.5 56t-112 18.5q-61 0 -113.5 -18.5t-91.5 -56t-61.5 -93t-22.5 -129.5t22.5 -129.5t61.5 -92.5t91.5 -56t113.5 -19zM418 1038h-45v-139h-101v385h156q74 0 110.5 -31.5t36.5 -91.5q0 -35 -17 -61t-48 -41l72 -125v-35h-90zM420 1106q31 0 44 14.5t13 42.5
q0 25 -12.5 39.5t-44.5 14.5h-47v-111h47z" />
    <glyph glyph-name="macron" unicode="&#xaf;" horiz-adv-x="834" 
d="M657 1221h-481v147h481v-147z" />
    <glyph glyph-name="degree" unicode="&#xb0;" horiz-adv-x="692" 
d="M346 893q-56 0 -105.5 20t-87 56t-59.5 87t-22 113q0 63 22 114t59.5 87.5t87 56t105.5 19.5t106 -19.5t87.5 -56t59.5 -87.5t22 -114q0 -62 -22 -113t-59.5 -87t-87.5 -56t-106 -20zM346 1006q33 0 61 11.5t49 33t32.5 51.5t11.5 67q0 38 -11.5 68.5t-32.5 52.5
t-49 33.5t-61 11.5q-32 0 -59.5 -11.5t-47.5 -33.5t-31 -52.5t-11 -68.5q0 -37 11 -67t31 -51.5t47.5 -33t59.5 -11.5z" />
    <glyph glyph-name="acute" unicode="&#xb4;" horiz-adv-x="834" 
d="M346 1161v49l103 224h210v-68l-192 -205h-121z" />
    <glyph glyph-name="paragraph" unicode="&#xb6;" horiz-adv-x="1165" 
d="M541 651h-19q-98 0 -180.5 20.5t-143 67t-94.5 121t-34 182.5q0 115 37.5 191t104 120.5t156.5 62.5t195 18h447v-1620h-158v1462h-154v-1462h-157v837z" />
    <glyph glyph-name="periodcentered" unicode="&#xb7;" horiz-adv-x="403" 
d="M201 492q-26 0 -49 9.5t-40 26.5t-26.5 40t-9.5 50t9.5 50.5t26.5 41.5t40 28t49 10t49 -10t40.5 -28t27.5 -41.5t10 -50.5t-10 -50t-27.5 -40t-40.5 -26.5t-49 -9.5z" />
    <glyph glyph-name="cedilla" unicode="&#xb8;" horiz-adv-x="834" 
d="M444 0v-63q81 -4 119.5 -42t38.5 -104q0 -35 -14 -63t-39 -47t-59.5 -29t-75.5 -10q-50 0 -85.5 10.5t-64.5 25.5v99h51q11 -13 31 -22t49 -9q70 0 70 49q0 25 -19 38t-65 13h-47v154h110z" />
    <glyph glyph-name="ordmasculine" unicode="&#xba;" horiz-adv-x="1022" 
d="M510 518q-93 0 -173.5 31t-139.5 90.5t-93 145t-34 194.5t34 195.5t93 147t139.5 92.5t173.5 32q94 0 174.5 -32t140 -92.5t93.5 -147t34 -195.5t-34 -194.5t-93.5 -145t-140 -90.5t-174.5 -31zM510 662q55 0 100 19t77 58t49.5 99t17.5 141q0 80 -17.5 140t-49.5 100.5
t-77 60.5t-100 20q-54 0 -99 -20t-76.5 -60.5t-49 -100.5t-17.5 -140q0 -81 17.5 -141t49 -99t76.5 -58t99 -19z" />
    <glyph glyph-name="guillemotright" unicode="&#xbb;" horiz-adv-x="977" 
d="M461 141l252 391v7l-252 383v55h166l270 -399v-91l-270 -399h-166v53zM80 141l252 391v7l-252 383v55h166l268 -399v-91l-268 -399h-166v53z" />
    <glyph glyph-name="onequarter" unicode="&#xbc;" horiz-adv-x="1409" 
d="M1112 0v174h-356v131l362 473h156v-489h92v-115h-92v-174h-162zM881 289h233v299h-6l-227 -295v-4zM223 655v605l-127 -70h-39v125l215 119h125v-779h-174zM270 -70h-157l979 1563h157z" />
    <glyph glyph-name="onehalf" unicode="&#xbd;" horiz-adv-x="1491" 
d="M1434 0h-527v131l215 207q36 34 63 62.5t44.5 53.5t26 48.5t8.5 48.5q0 48 -30 76t-89 28q-51 0 -91.5 -19t-66.5 -42h-63v115q38 31 100 55t145 24q125 0 196 -56.5t71 -166.5q0 -42 -13 -78.5t-37.5 -71.5t-60.5 -71t-82 -78l-145 -135h336v-131zM223 655v605l-127 -70
h-39v125l215 119h125v-779h-174zM270 -70h-157l979 1563h157z" />
    <glyph glyph-name="threequarters" unicode="&#xbe;" horiz-adv-x="1491" 
d="M297 645q-84 0 -140 21t-94 49v110h64q22 -20 61 -38.5t95 -18.5q71 0 110 29t39 88q0 29 -11 50t-30 34.5t-45 19.5t-57 6h-72v113h66q65 0 103 28t38 81q0 48 -32 73t-91 25q-49 0 -88.5 -15.5t-62.5 -33.5h-62v106q40 28 99.5 50t134.5 22q57 0 104.5 -13t82 -39
t54 -65t19.5 -92q0 -72 -40.5 -113.5t-103.5 -60.5v-4q75 -16 116.5 -59t41.5 -124q0 -55 -21 -97.5t-59.5 -72t-94 -44.5t-124.5 -15zM1196 0v174h-356v131l362 473h156v-489h90v-115h-90v-174h-162zM965 289h233v299h-6l-227 -295v-4zM375 -70h-160l979 1563h160z" />
    <glyph glyph-name="questiondown" unicode="&#xbf;" horiz-adv-x="903" 
d="M629 915q9 -68 6.5 -120t-19 -98.5t-50 -91.5t-85.5 -99q-35 -35 -68 -69.5t-58.5 -73t-41.5 -81.5t-16 -94q0 -88 52 -134t143 -46q95 0 158.5 30t101.5 77h86v-164q-31 -24 -68 -45t-81 -36.5t-96.5 -24.5t-113.5 -9q-94 0 -168.5 22t-126.5 66.5t-80 110.5t-28 153
q0 64 17 115.5t47.5 97t72 87.5t90.5 87q43 39 77.5 73t57 72t32.5 84t5 111h154zM543 1294q27 0 49.5 -9.5t39.5 -27t26.5 -40.5t9.5 -50t-9.5 -50.5t-26.5 -41t-39.5 -27.5t-49.5 -10q-26 0 -49 10t-40 27.5t-26.5 41t-9.5 50.5t9.5 50t26.5 40.5t40 27t49 9.5z" />
    <glyph glyph-name="Agrave" unicode="&#xc0;" horiz-adv-x="1309" 
d="M63 68l474 1366h237l471 -1366v-68h-211l-133 401h-526l-129 -401h-183v68zM428 565h418l-207 633h-4zM608 1479l-181 180v65h211l88 -194v-51h-118z" />
    <glyph glyph-name="Aacute" unicode="&#xc1;" horiz-adv-x="1309" 
d="M63 68l474 1366h237l471 -1366v-68h-211l-133 401h-526l-129 -401h-183v68zM428 565h418l-207 633h-4zM578 1530l88 194h209v-65l-176 -180h-121v51z" />
    <glyph glyph-name="Acircumflex" unicode="&#xc2;" horiz-adv-x="1309" 
d="M63 68l474 1366h237l471 -1366v-68h-211l-133 401h-526l-129 -401h-183v68zM428 565h418l-207 633h-4zM404 1538l178 193h150l172 -193v-59h-117l-135 110l-138 -110h-110v59z" />
    <glyph glyph-name="Atilde" unicode="&#xc3;" horiz-adv-x="1309" 
d="M63 68l474 1366h237l471 -1366v-68h-211l-133 401h-526l-129 -401h-183v68zM428 565h418l-207 633h-4zM355 1548q15 79 60 123.5t116 44.5q34 0 64 -10t56.5 -22.5t49.5 -22.5t43 -10q29 0 47.5 18t26.5 49h118v-59q-15 -79 -59.5 -123.5t-116.5 -44.5q-33 0 -62.5 10.5
t-56 23.5t-49 23.5t-41.5 10.5q-32 0 -49.5 -19t-23.5 -53h-123v61z" />
    <glyph glyph-name="Adieresis" unicode="&#xc4;" horiz-adv-x="1309" 
d="M63 68l474 1366h237l471 -1366v-68h-211l-133 401h-526l-129 -401h-183v68zM428 565h418l-207 633h-4zM484 1489q-24 0 -45.5 9t-37 24.5t-25 37t-9.5 46.5q0 23 9.5 43.5t25 36.5t37 25t45.5 9t45.5 -9t37 -25t24.5 -36.5t9 -43.5q0 -25 -9 -46.5t-24.5 -37t-37 -24.5
t-45.5 -9zM824 1489q-24 0 -45 9t-36.5 24.5t-24.5 37t-9 46.5q0 23 9 43.5t24.5 36.5t36.5 25t45 9t45 -9t36.5 -25t25 -36.5t9.5 -43.5q0 -25 -9.5 -46.5t-25 -37t-36.5 -24.5t-45 -9z" />
    <glyph glyph-name="Aring" unicode="&#xc5;" horiz-adv-x="1309" 
d="M63 68l474 1366h237l471 -1366v-68h-211l-133 401h-526l-129 -401h-183v68zM428 565h418l-207 633h-4zM648 1485q-39 0 -74.5 13.5t-61.5 38.5t-41.5 60.5t-15.5 79.5t15.5 79.5t41.5 61t61.5 39t74.5 13.5t74 -13.5t62 -39t42.5 -61t15.5 -79.5t-15.5 -79.5t-42.5 -60.5
t-62 -38.5t-74 -13.5zM648 1587q37 0 61.5 24t24.5 66t-24.5 67t-61.5 25q-35 0 -59.5 -25t-24.5 -67t24.5 -66t59.5 -24z" />
    <glyph glyph-name="AE" unicode="&#xc6;" horiz-adv-x="1890" 
d="M907 412h-485l-199 -412h-182v68l684 1366h1059v-172h-656v-447h482v-164h-482v-483h682v-168h-903v412zM502 575h405v687h-71z" />
    <glyph glyph-name="Ccedilla" unicode="&#xc7;" horiz-adv-x="1255" 
d="M723 -12v-51q81 -4 120.5 -42t39.5 -104q0 -35 -14 -63t-39 -47t-59.5 -29t-76.5 -10q-49 0 -85 10.5t-64 25.5v99h51q11 -13 31 -22t49 -9q32 0 50.5 12t18.5 37t-19 38t-64 13h-48v150q-120 18 -217 74t-165.5 147.5t-106 217t-37.5 282.5q0 174 50 309.5t138 228.5
t207.5 142t259.5 49q77 0 136.5 -8t108 -23t89 -36.5t80.5 -47.5v-174h-86q-25 25 -56 46.5t-70 37.5t-87 25.5t-108 9.5q-98 0 -178 -35.5t-137 -105t-88.5 -172.5t-31.5 -238q0 -284 110 -426.5t308 -142.5q68 0 123 12.5t99 33.5t80 49t67 60h72v-170q-37 -32 -83 -60
t-101.5 -48.5t-121 -32.5t-143.5 -12h-2z" />
    <glyph glyph-name="Egrave" unicode="&#xc8;" horiz-adv-x="1139" 
d="M158 1434h878v-172h-657v-447h481v-164h-481v-483h680v-168h-901v1434zM574 1479l-181 180v65h211l88 -194v-51h-118z" />
    <glyph glyph-name="Eacute" unicode="&#xc9;" horiz-adv-x="1139" 
d="M158 1434h878v-172h-657v-447h481v-164h-481v-483h680v-168h-901v1434zM549 1530l88 194h209v-65l-176 -180h-121v51z" />
    <glyph glyph-name="Ecircumflex" unicode="&#xca;" horiz-adv-x="1139" 
d="M158 1434h878v-172h-657v-447h481v-164h-481v-483h680v-168h-901v1434zM367 1538l178 193h150l172 -193v-59h-117l-135 110l-138 -110h-110v59z" />
    <glyph glyph-name="Edieresis" unicode="&#xcb;" horiz-adv-x="1139" 
d="M158 1434h878v-172h-657v-447h481v-164h-481v-483h680v-168h-901v1434zM447 1489q-24 0 -45.5 9t-37 24.5t-25 37t-9.5 46.5q0 23 9.5 43.5t25 36.5t37 25t45.5 9t45.5 -9t37 -25t24.5 -36.5t9 -43.5q0 -25 -9 -46.5t-24.5 -37t-37 -24.5t-45.5 -9zM787 1489q-24 0 -45 9
t-36.5 24.5t-24.5 37t-9 46.5q0 23 9 43.5t24.5 36.5t36.5 25t45 9t45 -9t36.5 -25t25 -36.5t9.5 -43.5q0 -25 -9.5 -46.5t-25 -37t-36.5 -24.5t-45 -9z" />
    <glyph glyph-name="Igrave" unicode="&#xcc;" horiz-adv-x="549" 
d="M162 0v1434h225v-1434h-225zM231 1479l-181 180v65h211l88 -194v-51h-118z" />
    <glyph glyph-name="Iacute" unicode="&#xcd;" horiz-adv-x="549" 
d="M162 0v1434h225v-1434h-225zM208 1530l88 194h209v-65l-176 -180h-121v51z" />
    <glyph glyph-name="Icircumflex" unicode="&#xce;" horiz-adv-x="549" 
d="M162 0v1434h225v-1434h-225zM26 1538l178 193h150l172 -193v-59h-117l-135 110l-138 -110h-110v59z" />
    <glyph glyph-name="Idieresis" unicode="&#xcf;" horiz-adv-x="549" 
d="M162 0v1434h225v-1434h-225zM106 1489q-24 0 -45.5 9t-37 24.5t-25 37t-9.5 46.5q0 23 9.5 43.5t25 36.5t37 25t45.5 9t45.5 -9t37 -25t24.5 -36.5t9 -43.5q0 -25 -9 -46.5t-24.5 -37t-37 -24.5t-45.5 -9zM446 1489q-24 0 -45 9t-36.5 24.5t-24.5 37t-9 46.5q0 23 9 43.5
t24.5 36.5t36.5 25t45 9t45 -9t36.5 -25t25 -36.5t9.5 -43.5q0 -25 -9.5 -46.5t-25 -37t-36.5 -24.5t-45 -9z" />
    <glyph glyph-name="Eth" unicode="&#xd0;" horiz-adv-x="1376" 
d="M35 799h131v635h409q174 0 308 -41t225 -128t137.5 -222t46.5 -322q0 -186 -47 -322t-138.5 -224.5t-226.5 -131.5t-311 -43h-403v633h-131v166zM569 168q127 0 220 30.5t154 96.5t90.5 170.5t29.5 253.5q0 147 -29.5 251t-90.5 169t-154 95t-220 30h-182v-465h350v-166
h-350v-465h182z" />
    <glyph glyph-name="Ntilde" unicode="&#xd1;" horiz-adv-x="1391" 
d="M158 1434h256l624 -1055h4v1055h193v-1434h-205l-678 1149h-4v-1149h-190v1434zM432 1548q15 79 60 123.5t116 44.5q34 0 64 -10t56.5 -22.5t49.5 -22.5t43 -10q29 0 47.5 18t26.5 49h118v-59q-15 -79 -59.5 -123.5t-116.5 -44.5q-33 0 -62.5 10.5t-56 23.5t-49 23.5
t-41.5 10.5q-32 0 -49.5 -19t-23.5 -53h-123v61z" />
    <glyph glyph-name="Ograve" unicode="&#xd2;" horiz-adv-x="1462" 
d="M731 -12q-131 0 -249 47.5t-207 139.5t-141 228.5t-52 313.5t52 313t141 228.5t207 140t249 47.5q87 0 169 -21.5t153.5 -63t131.5 -103.5t102.5 -143t66.5 -180.5t24 -217.5t-24 -218t-66.5 -181t-102.5 -143t-131.5 -103.5t-153.5 -62.5t-169 -21zM731 154q90 0 167 34
t133 103t88 174t32 248t-32 249.5t-88 177t-133 105.5t-167 35q-91 0 -168 -35t-133 -105.5t-87.5 -177t-31.5 -249.5t31.5 -248t87.5 -174t133 -103t168 -34zM687 1479l-181 180v65h211l88 -194v-51h-118z" />
    <glyph glyph-name="Oacute" unicode="&#xd3;" horiz-adv-x="1462" 
d="M731 -12q-131 0 -249 47.5t-207 139.5t-141 228.5t-52 313.5t52 313t141 228.5t207 140t249 47.5q87 0 169 -21.5t153.5 -63t131.5 -103.5t102.5 -143t66.5 -180.5t24 -217.5t-24 -218t-66.5 -181t-102.5 -143t-131.5 -103.5t-153.5 -62.5t-169 -21zM731 154q90 0 167 34
t133 103t88 174t32 248t-32 249.5t-88 177t-133 105.5t-167 35q-91 0 -168 -35t-133 -105.5t-87.5 -177t-31.5 -249.5t31.5 -248t87.5 -174t133 -103t168 -34zM662 1530l88 194h209v-65l-176 -180h-121v51z" />
    <glyph glyph-name="Ocircumflex" unicode="&#xd4;" horiz-adv-x="1462" 
d="M479 1538l178 193h150l172 -193v-59h-117l-135 110l-138 -110h-110v59zM731 -12q-131 0 -249 47.5t-207 139.5t-141 228.5t-52 313.5t52 313t141 228.5t207 140t249 47.5q87 0 169 -21.5t153.5 -63t131.5 -103.5t102.5 -143t66.5 -180.5t24 -217.5t-24 -218t-66.5 -181
t-102.5 -143t-131.5 -103.5t-153.5 -62.5t-169 -21zM731 154q90 0 167 34t133 103t88 174t32 248t-32 249.5t-88 177t-133 105.5t-167 35q-91 0 -168 -35t-133 -105.5t-87.5 -177t-31.5 -249.5t31.5 -248t87.5 -174t133 -103t168 -34z" />
    <glyph glyph-name="Otilde" unicode="&#xd5;" horiz-adv-x="1462" 
d="M731 -12q-131 0 -249 47.5t-207 139.5t-141 228.5t-52 313.5t52 313t141 228.5t207 140t249 47.5q87 0 169 -21.5t153.5 -63t131.5 -103.5t102.5 -143t66.5 -180.5t24 -217.5t-24 -218t-66.5 -181t-102.5 -143t-131.5 -103.5t-153.5 -62.5t-169 -21zM731 154q90 0 167 34
t133 103t88 174t32 248t-32 249.5t-88 177t-133 105.5t-167 35q-91 0 -168 -35t-133 -105.5t-87.5 -177t-31.5 -249.5t31.5 -248t87.5 -174t133 -103t168 -34zM439 1548q15 79 60 123.5t116 44.5q34 0 64 -10t56.5 -22.5t49.5 -22.5t43 -10q29 0 47.5 18t26.5 49h118v-59
q-15 -79 -59.5 -123.5t-116.5 -44.5q-33 0 -62.5 10.5t-56 23.5t-49 23.5t-41.5 10.5q-32 0 -49.5 -19t-23.5 -53h-123v61z" />
    <glyph glyph-name="Odieresis" unicode="&#xd6;" horiz-adv-x="1462" 
d="M731 -12q-131 0 -249 47.5t-207 139.5t-141 228.5t-52 313.5t52 313t141 228.5t207 140t249 47.5q87 0 169 -21.5t153.5 -63t131.5 -103.5t102.5 -143t66.5 -180.5t24 -217.5t-24 -218t-66.5 -181t-102.5 -143t-131.5 -103.5t-153.5 -62.5t-169 -21zM731 154q90 0 167 34
t133 103t88 174t32 248t-32 249.5t-88 177t-133 105.5t-167 35q-91 0 -168 -35t-133 -105.5t-87.5 -177t-31.5 -249.5t31.5 -248t87.5 -174t133 -103t168 -34zM560 1489q-24 0 -45.5 9t-37 24.5t-25 37t-9.5 46.5q0 23 9.5 43.5t25 36.5t37 25t45.5 9t45.5 -9t37 -25
t24.5 -36.5t9 -43.5q0 -25 -9 -46.5t-24.5 -37t-37 -24.5t-45.5 -9zM900 1489q-24 0 -45 9t-36.5 24.5t-24.5 37t-9 46.5q0 23 9 43.5t24.5 36.5t36.5 25t45 9t45 -9t36.5 -25t25 -36.5t9.5 -43.5q0 -25 -9.5 -46.5t-25 -37t-36.5 -24.5t-45 -9z" />
    <glyph glyph-name="multiply" unicode="&#xd7;" 
d="M616 578l-307 -308l-112 117l305 307l-305 307l112 117l307 -307l306 307l112 -117l-305 -307l305 -307l-112 -117z" />
    <glyph glyph-name="Oslash" unicode="&#xd8;" horiz-adv-x="1462" 
d="M731 -12q-103 0 -196.5 28.5t-172.5 83.5l-112 -145h-141v45l147 195q-80 92 -127 223t-47 299q0 177 52 313t141 228.5t207 140t249 47.5q106 0 203.5 -31.5t177.5 -93.5l109 141h143v-45l-147 -192q75 -93 118 -219.5t43 -288.5q0 -118 -24 -218t-66.5 -181
t-102.5 -143t-131.5 -103.5t-153.5 -62.5t-169 -21zM309 713q0 -112 18 -200.5t52 -154.5l622 818q-107 104 -270 104q-91 0 -168 -35t-133.5 -105.5t-88.5 -177t-32 -249.5zM731 152q90 0 167 34t134 103.5t89 175t32 248.5q0 105 -17.5 190.5t-48.5 151.5l-618 -811
q53 -47 119 -69.5t143 -22.5z" />
    <glyph glyph-name="Ugrave" unicode="&#xd9;" horiz-adv-x="1380" 
d="M715 164q72 0 130.5 16.5t100 57.5t64 110t22.5 174v912h199v-906q0 -273 -131.5 -406.5t-397.5 -133.5q-126 0 -228 33t-174 100.5t-111 168.5t-39 238v906h223v-912q0 -107 25 -176t70.5 -109.5t108.5 -56.5t138 -16zM657 1479l-181 180v65h211l88 -194v-51h-118z" />
    <glyph glyph-name="Uacute" unicode="&#xda;" horiz-adv-x="1380" 
d="M715 164q72 0 130.5 16.5t100 57.5t64 110t22.5 174v912h199v-906q0 -273 -131.5 -406.5t-397.5 -133.5q-126 0 -228 33t-174 100.5t-111 168.5t-39 238v906h223v-912q0 -107 25 -176t70.5 -109.5t108.5 -56.5t138 -16zM633 1530l88 194h209v-65l-176 -180h-121v51z" />
    <glyph glyph-name="Ucircumflex" unicode="&#xdb;" horiz-adv-x="1380" 
d="M715 164q72 0 130.5 16.5t100 57.5t64 110t22.5 174v912h199v-906q0 -273 -131.5 -406.5t-397.5 -133.5q-126 0 -228 33t-174 100.5t-111 168.5t-39 238v906h223v-912q0 -107 25 -176t70.5 -109.5t108.5 -56.5t138 -16zM453 1538l178 193h150l172 -193v-59h-117l-135 110
l-138 -110h-110v59z" />
    <glyph glyph-name="Udieresis" unicode="&#xdc;" horiz-adv-x="1380" 
d="M715 164q72 0 130.5 16.5t100 57.5t64 110t22.5 174v912h199v-906q0 -273 -131.5 -406.5t-397.5 -133.5q-126 0 -228 33t-174 100.5t-111 168.5t-39 238v906h223v-912q0 -107 25 -176t70.5 -109.5t108.5 -56.5t138 -16zM533 1489q-24 0 -45.5 9t-37 24.5t-25 37
t-9.5 46.5q0 23 9.5 43.5t25 36.5t37 25t45.5 9t45.5 -9t37 -25t24.5 -36.5t9 -43.5q0 -25 -9 -46.5t-24.5 -37t-37 -24.5t-45.5 -9zM873 1489q-24 0 -45 9t-36.5 24.5t-24.5 37t-9 46.5q0 23 9 43.5t24.5 36.5t36.5 25t45 9t45 -9t36.5 -25t25 -36.5t9.5 -43.5
q0 -25 -9.5 -46.5t-25 -37t-36.5 -24.5t-45 -9z" />
    <glyph glyph-name="Yacute" unicode="&#xdd;" horiz-adv-x="1190" 
d="M494 0v573l-439 789v72h203l352 -650h2l344 650h179v-72l-420 -782v-580h-221zM538 1530l88 194h209v-65l-176 -180h-121v51z" />
    <glyph glyph-name="Thorn" unicode="&#xde;" horiz-adv-x="1174" 
d="M158 1434h221v-277h196q124 0 222 -24t166 -75t104.5 -131.5t36.5 -193.5t-36 -194t-104.5 -133.5t-167.5 -77.5t-225 -25h-192v-303h-221v1434zM379 463h192q160 0 234 62.5t74 203.5q0 71 -18 120t-56 80t-96 44.5t-138 13.5h-192v-524z" />
    <glyph glyph-name="germandbls" unicode="&#xdf;" horiz-adv-x="1210" 
d="M137 1028q0 100 32.5 178.5t94.5 132.5t152 82.5t205 28.5q87 0 160.5 -16.5t126.5 -51.5t82.5 -89.5t29.5 -129.5q0 -43 -16 -81t-43 -72.5t-61.5 -65.5t-70.5 -59q-34 -26 -57 -46t-37 -36.5t-20 -31t-6 -30.5q0 -17 7.5 -31t25.5 -28t48.5 -29.5t77.5 -34.5
q64 -26 115.5 -53.5t86.5 -64.5t54 -86t19 -117q0 -70 -25 -127t-73 -97.5t-118 -62.5t-161 -22q-88 0 -156.5 20.5t-111.5 52.5v160h67q15 -13 34.5 -26.5t44 -24t55 -17t67.5 -6.5q87 0 137.5 35.5t50.5 98.5q0 31 -11 54.5t-35 43t-62 37.5t-92 39q-53 21 -95.5 44.5
t-72 53.5t-45 67t-15.5 85q0 43 10.5 77t30 63.5t47 57t60.5 58.5q29 26 54.5 48.5t44 45t29.5 47t11 53.5q0 68 -52 103.5t-143 35.5q-137 0 -204.5 -73t-67.5 -201v-1020h-209v1028z" />
    <glyph glyph-name="agrave" unicode="&#xe0;" horiz-adv-x="1057" 
d="M846 0q-31 0 -52.5 5t-35.5 18.5t-22.5 36.5t-12.5 59q-60 -65 -136 -98t-184 -33q-73 0 -134.5 20.5t-106 60.5t-69.5 100t-25 138q0 82 31 143.5t86 102t131.5 60.5t166.5 20q69 0 123.5 -7.5t110.5 -21.5v141q0 96 -54.5 139.5t-160.5 43.5q-96 0 -169 -25.5
t-124 -62.5h-66v155q36 18 76 34.5t87.5 29t102 20.5t119.5 8q95 0 169.5 -18t125.5 -57.5t78 -101.5t27 -150v-760h-82zM471 131q42 0 77 9.5t65 26t55.5 39t48.5 48.5v227q-45 10 -94 15.5t-105 5.5q-54 0 -99 -10.5t-77.5 -32.5t-51 -56.5t-18.5 -83.5q0 -50 15 -85.5
t41.5 -58.5t63 -33.5t79.5 -10.5zM469 1161l-193 205v68h209l102 -224v-49h-118z" />
    <glyph glyph-name="aacute" unicode="&#xe1;" horiz-adv-x="1057" 
d="M846 0q-31 0 -52.5 5t-35.5 18.5t-22.5 36.5t-12.5 59q-60 -65 -136 -98t-184 -33q-73 0 -134.5 20.5t-106 60.5t-69.5 100t-25 138q0 82 31 143.5t86 102t131.5 60.5t166.5 20q69 0 123.5 -7.5t110.5 -21.5v141q0 96 -54.5 139.5t-160.5 43.5q-96 0 -169 -25.5
t-124 -62.5h-66v155q36 18 76 34.5t87.5 29t102 20.5t119.5 8q95 0 169.5 -18t125.5 -57.5t78 -101.5t27 -150v-760h-82zM471 131q42 0 77 9.5t65 26t55.5 39t48.5 48.5v227q-45 10 -94 15.5t-105 5.5q-54 0 -99 -10.5t-77.5 -32.5t-51 -56.5t-18.5 -83.5q0 -50 15 -85.5
t41.5 -58.5t63 -33.5t79.5 -10.5zM469 1161v49l103 224h210v-68l-192 -205h-121z" />
    <glyph glyph-name="acircumflex" unicode="&#xe2;" horiz-adv-x="1057" 
d="M846 0q-31 0 -52.5 5t-35.5 18.5t-22.5 36.5t-12.5 59q-60 -65 -136 -98t-184 -33q-73 0 -134.5 20.5t-106 60.5t-69.5 100t-25 138q0 82 31 143.5t86 102t131.5 60.5t166.5 20q69 0 123.5 -7.5t110.5 -21.5v141q0 96 -54.5 139.5t-160.5 43.5q-96 0 -169 -25.5
t-124 -62.5h-66v155q36 18 76 34.5t87.5 29t102 20.5t119.5 8q95 0 169.5 -18t125.5 -57.5t78 -101.5t27 -150v-760h-82zM471 131q42 0 77 9.5t65 26t55.5 39t48.5 48.5v227q-45 10 -94 15.5t-105 5.5q-54 0 -99 -10.5t-77.5 -32.5t-51 -56.5t-18.5 -83.5q0 -50 15 -85.5
t41.5 -58.5t63 -33.5t79.5 -10.5zM275 1221l180 213h150l174 -213v-60h-117l-137 131l-142 -131h-108v60z" />
    <glyph glyph-name="atilde" unicode="&#xe3;" horiz-adv-x="1057" 
d="M846 0q-31 0 -52.5 5t-35.5 18.5t-22.5 36.5t-12.5 59q-60 -65 -136 -98t-184 -33q-73 0 -134.5 20.5t-106 60.5t-69.5 100t-25 138q0 82 31 143.5t86 102t131.5 60.5t166.5 20q69 0 123.5 -7.5t110.5 -21.5v141q0 96 -54.5 139.5t-160.5 43.5q-96 0 -169 -25.5
t-124 -62.5h-66v155q36 18 76 34.5t87.5 29t102 20.5t119.5 8q95 0 169.5 -18t125.5 -57.5t78 -101.5t27 -150v-760h-82zM471 131q42 0 77 9.5t65 26t55.5 39t48.5 48.5v227q-45 10 -94 15.5t-105 5.5q-54 0 -99 -10.5t-77.5 -32.5t-51 -56.5t-18.5 -83.5q0 -50 15 -85.5
t41.5 -58.5t63 -33.5t79.5 -10.5zM238 1235q15 78 60 123t116 45q34 0 64 -10.5t56.5 -22.5t49.5 -22.5t43 -10.5q29 0 47.5 19t26.5 51h118v-61q-15 -79 -59.5 -123.5t-116.5 -44.5q-33 0 -62.5 10.5t-56 23t-49 23t-41.5 10.5q-32 0 -49.5 -18.5t-23.5 -50.5h-123v59z" />
    <glyph glyph-name="adieresis" unicode="&#xe4;" horiz-adv-x="1057" 
d="M846 0q-31 0 -52.5 5t-35.5 18.5t-22.5 36.5t-12.5 59q-60 -65 -136 -98t-184 -33q-73 0 -134.5 20.5t-106 60.5t-69.5 100t-25 138q0 82 31 143.5t86 102t131.5 60.5t166.5 20q69 0 123.5 -7.5t110.5 -21.5v141q0 96 -54.5 139.5t-160.5 43.5q-96 0 -169 -25.5
t-124 -62.5h-66v155q36 18 76 34.5t87.5 29t102 20.5t119.5 8q95 0 169.5 -18t125.5 -57.5t78 -101.5t27 -150v-760h-82zM471 131q42 0 77 9.5t65 26t55.5 39t48.5 48.5v227q-45 10 -94 15.5t-105 5.5q-54 0 -99 -10.5t-77.5 -32.5t-51 -56.5t-18.5 -83.5q0 -50 15 -85.5
t41.5 -58.5t63 -33.5t79.5 -10.5zM352 1190q-24 0 -45.5 9t-37 24.5t-25 36.5t-9.5 45t9.5 44.5t25 36t37 24.5t45.5 9t45.5 -9t37 -24.5t24.5 -36t9 -44.5t-9 -45t-24.5 -36.5t-37 -24.5t-45.5 -9zM704 1190q-24 0 -45 9t-36.5 24.5t-24.5 36.5t-9 45t9 44.5t24.5 36
t36.5 24.5t45 9t45 -9t37 -24.5t25.5 -36t9.5 -44.5t-9.5 -45t-25.5 -36.5t-37 -24.5t-45 -9z" />
    <glyph glyph-name="aring" unicode="&#xe5;" horiz-adv-x="1057" 
d="M846 0q-31 0 -52.5 5t-35.5 18.5t-22.5 36.5t-12.5 59q-60 -65 -136 -98t-184 -33q-73 0 -134.5 20.5t-106 60.5t-69.5 100t-25 138q0 82 31 143.5t86 102t131.5 60.5t166.5 20q69 0 123.5 -7.5t110.5 -21.5v141q0 96 -54.5 139.5t-160.5 43.5q-96 0 -169 -25.5
t-124 -62.5h-66v155q36 18 76 34.5t87.5 29t102 20.5t119.5 8q95 0 169.5 -18t125.5 -57.5t78 -101.5t27 -150v-760h-82zM471 131q42 0 77 9.5t65 26t55.5 39t48.5 48.5v227q-45 10 -94 15.5t-105 5.5q-54 0 -99 -10.5t-77.5 -32.5t-51 -56.5t-18.5 -83.5q0 -50 15 -85.5
t41.5 -58.5t63 -33.5t79.5 -10.5zM527 1167q-39 0 -74.5 13t-61.5 38t-41.5 60t-15.5 80t15.5 80.5t41.5 61t61.5 39t74.5 13.5t74 -13.5t62 -39t42.5 -61t15.5 -80.5t-15.5 -80t-42.5 -60t-62 -38t-74 -13zM527 1268q37 0 61.5 25t24.5 65q0 42 -24.5 67t-61.5 25
q-35 0 -59.5 -25t-24.5 -67q0 -40 24.5 -65t59.5 -25z" />
    <glyph glyph-name="ae" unicode="&#xe6;" horiz-adv-x="1720" 
d="M422 -12q-80 0 -145 20t-111.5 60.5t-72 100.5t-25.5 140t31 141t87.5 102t134.5 62t173 21h223v110q0 96 -54.5 139.5t-160.5 43.5q-96 0 -169 -25.5t-124 -62.5h-66v155q36 18 76 34.5t87.5 29t102 20.5t119.5 8q130 0 212 -34t120 -109q66 69 152.5 106t189.5 37
q107 0 191 -31.5t141.5 -95t88 -160.5t30.5 -229q0 -23 -2 -45t-2 -28h-721q4 -96 26.5 -163t64 -109.5t100 -61.5t134.5 -19q104 0 177.5 29t119.5 70h70v-146q-30 -20 -67.5 -39.5t-85 -35.5t-107.5 -25.5t-135 -9.5q-144 0 -248.5 50t-167.5 144q-32 -43 -71 -78.5
t-86.5 -61t-105 -40t-124.5 -14.5zM467 131q53 0 95.5 12.5t77.5 33.5t63.5 50t52.5 62q-38 93 -41 209h-199q-54 0 -98.5 -10t-77 -32t-50.5 -55.5t-18 -81.5q0 -50 15 -85.5t41 -58.5t61.5 -33.5t77.5 -10.5zM1202 944q-51 0 -96.5 -16.5t-81 -53t-59.5 -95.5t-33 -144
h514q-2 86 -19.5 145t-49 95.5t-76 52.5t-99.5 16z" />
    <glyph glyph-name="ccedilla" unicode="&#xe7;" horiz-adv-x="1001" 
d="M457 0q-92 18 -164 63t-121.5 113t-75.5 158.5t-26 200.5q0 129 40 231.5t110.5 173.5t167 109t210.5 38q62 0 111.5 -8t88.5 -20.5t69 -27.5t53 -30v-163h-86q-17 17 -40 33t-52.5 28t-65.5 19.5t-80 7.5q-69 0 -126.5 -26t-99 -75.5t-64.5 -122.5t-23 -167
q0 -97 21.5 -170t62 -121.5t97.5 -72.5t128 -24q52 0 93 9t72.5 24t54.5 33.5t40 36.5h78v-152q-23 -18 -56 -37.5t-75.5 -35.5t-95 -26.5t-115.5 -10.5h-21v-51q81 -4 119.5 -42t38.5 -104q0 -35 -14 -63t-39 -47t-59.5 -29t-75.5 -10q-50 0 -85.5 10.5t-64.5 25.5v99h53
q10 -13 29.5 -22t48.5 -9q70 0 70 49q0 25 -18.5 38t-63.5 13h-49v154z" />
    <glyph glyph-name="egrave" unicode="&#xe8;" horiz-adv-x="1077" 
d="M285 496q4 -95 27 -162t64 -109t100 -61t134 -19q103 0 175.5 29t121.5 70h68v-146q-29 -20 -66.5 -39.5t-85.5 -35.5t-108 -25.5t-135 -9.5q-123 0 -218 38t-160 108.5t-98.5 171t-33.5 226.5q0 128 37.5 231t103 175t155 110.5t193.5 38.5q106 0 189.5 -31.5t141 -95.5
t88 -161.5t30.5 -229.5q0 -21 -1 -44t-1 -29h-721zM559 944q-52 0 -97.5 -16.5t-81 -53.5t-59.5 -96.5t-32 -144.5h512q-2 87 -19 146t-48 96t-75.5 53t-99.5 16zM498 1161l-193 205v68h209l102 -224v-49h-118z" />
    <glyph glyph-name="eacute" unicode="&#xe9;" horiz-adv-x="1077" 
d="M285 496q4 -95 27 -162t64 -109t100 -61t134 -19q103 0 175.5 29t121.5 70h68v-146q-29 -20 -66.5 -39.5t-85.5 -35.5t-108 -25.5t-135 -9.5q-123 0 -218 38t-160 108.5t-98.5 171t-33.5 226.5q0 128 37.5 231t103 175t155 110.5t193.5 38.5q106 0 189.5 -31.5t141 -95.5
t88 -161.5t30.5 -229.5q0 -21 -1 -44t-1 -29h-721zM559 944q-52 0 -97.5 -16.5t-81 -53.5t-59.5 -96.5t-32 -144.5h512q-2 87 -19 146t-48 96t-75.5 53t-99.5 16zM496 1161v49l103 224h210v-68l-192 -205h-121z" />
    <glyph glyph-name="ecircumflex" unicode="&#xea;" horiz-adv-x="1077" 
d="M285 496q4 -95 27 -162t64 -109t100 -61t134 -19q103 0 175.5 29t121.5 70h68v-146q-29 -20 -66.5 -39.5t-85.5 -35.5t-108 -25.5t-135 -9.5q-123 0 -218 38t-160 108.5t-98.5 171t-33.5 226.5q0 128 37.5 231t103 175t155 110.5t193.5 38.5q106 0 189.5 -31.5t141 -95.5
t88 -161.5t30.5 -229.5q0 -21 -1 -44t-1 -29h-721zM559 944q-52 0 -97.5 -16.5t-81 -53.5t-59.5 -96.5t-32 -144.5h512q-2 87 -19 146t-48 96t-75.5 53t-99.5 16zM303 1221l180 213h150l174 -213v-60h-117l-137 131l-142 -131h-108v60z" />
    <glyph glyph-name="edieresis" unicode="&#xeb;" horiz-adv-x="1077" 
d="M285 496q4 -95 27 -162t64 -109t100 -61t134 -19q103 0 175.5 29t121.5 70h68v-146q-29 -20 -66.5 -39.5t-85.5 -35.5t-108 -25.5t-135 -9.5q-123 0 -218 38t-160 108.5t-98.5 171t-33.5 226.5q0 128 37.5 231t103 175t155 110.5t193.5 38.5q106 0 189.5 -31.5t141 -95.5
t88 -161.5t30.5 -229.5q0 -21 -1 -44t-1 -29h-721zM559 944q-52 0 -97.5 -16.5t-81 -53.5t-59.5 -96.5t-32 -144.5h512q-2 87 -19 146t-48 96t-75.5 53t-99.5 16zM377 1190q-24 0 -45.5 9t-37 24.5t-25 36.5t-9.5 45t9.5 44.5t25 36t37 24.5t45.5 9t45.5 -9t37 -24.5
t24.5 -36t9 -44.5t-9 -45t-24.5 -36.5t-37 -24.5t-45.5 -9zM729 1190q-24 0 -45 9t-36.5 24.5t-24.5 36.5t-9 45t9 44.5t24.5 36t36.5 24.5t45 9t45 -9t37 -24.5t25.5 -36t9.5 -44.5t-9.5 -45t-25.5 -36.5t-37 -24.5t-45 -9z" />
    <glyph glyph-name="igrave" unicode="&#xec;" horiz-adv-x="492" 
d="M139 0v1071h117q31 0 49 -6t27.5 -23t12.5 -48.5t3 -82.5v-911h-209zM199 1161l-193 205v68h209l102 -224v-49h-118z" />
    <glyph glyph-name="iacute" unicode="&#xed;" horiz-adv-x="492" 
d="M139 0v1071h117q31 0 49 -6t27.5 -23t12.5 -48.5t3 -82.5v-911h-209zM167 1161v49l103 224h210v-68l-192 -205h-121z" />
    <glyph glyph-name="icircumflex" unicode="&#xee;" horiz-adv-x="492" 
d="M139 0v1071h117q31 0 49 -6t27.5 -23t12.5 -48.5t3 -82.5v-911h-209zM-6 1221l180 213h150l174 -213v-60h-117l-137 131l-142 -131h-108v60z" />
    <glyph glyph-name="idieresis" unicode="&#xef;" horiz-adv-x="492" 
d="M139 0v1071h117q31 0 49 -6t27.5 -23t12.5 -48.5t3 -82.5v-911h-209zM72 1190q-24 0 -45.5 9t-37 24.5t-25 36.5t-9.5 45t9.5 44.5t25 36t37 24.5t45.5 9t45.5 -9t37 -24.5t24.5 -36t9 -44.5t-9 -45t-24.5 -36.5t-37 -24.5t-45.5 -9zM424 1190q-24 0 -45 9t-36.5 24.5
t-24.5 36.5t-9 45t9 44.5t24.5 36t36.5 24.5t45 9t45 -9t37 -24.5t25.5 -36t9.5 -44.5t-9.5 -45t-25.5 -36.5t-37 -24.5t-45 -9z" />
    <glyph glyph-name="eth" unicode="&#xf0;" horiz-adv-x="1163" 
d="M371 1143l123 102q-38 16 -76 27t-80 20v142h74q60 -13 115 -30t106 -40l80 68h143v-41l-104 -91q80 -54 143.5 -126.5t107.5 -164t67.5 -202t23.5 -240.5q0 -149 -40 -258t-109.5 -180.5t-163.5 -106t-203 -34.5q-112 0 -205.5 37t-160.5 106.5t-104.5 168.5t-37.5 222
q0 124 36 221t99.5 164t149.5 102t186 35q55 0 99 -8.5t79.5 -25.5t65 -41.5t55.5 -55.5q-42 91 -97.5 158t-128.5 115l-100 -84h-143v41zM588 145q140 0 216.5 96.5t76.5 278.5q0 91 -19.5 161.5t-57 119.5t-92 74.5t-124.5 25.5q-69 0 -125.5 -25t-96.5 -74t-61.5 -120
t-21.5 -162q0 -90 21.5 -159.5t61 -117.5t96 -73t126.5 -25z" />
    <glyph glyph-name="ntilde" unicode="&#xf1;" horiz-adv-x="1159" 
d="M268 1071q19 0 33 -5t23.5 -20t14.5 -41.5t7 -68.5q39 31 86 58.5t99 48t109 32.5t116 12q56 0 105.5 -13t87 -46.5t59.5 -90.5t22 -144v-793h-209v743q0 50 -11 83t-31.5 52.5t-50.5 27t-69 7.5q-44 0 -85.5 -9.5t-81.5 -24.5t-76.5 -34t-69.5 -38v-807h-209v1071h131z
M298 1235q15 78 60 123t116 45q34 0 64 -10.5t56.5 -22.5t49.5 -22.5t43 -10.5q29 0 47.5 19t26.5 51h118v-61q-15 -79 -59.5 -123.5t-116.5 -44.5q-33 0 -62.5 10.5t-56 23t-49 23t-41.5 10.5q-32 0 -49.5 -18.5t-23.5 -50.5h-123v59z" />
    <glyph glyph-name="ograve" unicode="&#xf2;" horiz-adv-x="1163" 
d="M582 -12q-109 0 -202.5 37.5t-162.5 107.5t-108 171t-39 228q0 128 39 231t108 175t162.5 110.5t202.5 38.5t202.5 -38.5t162.5 -110.5t108 -175t39 -231q0 -127 -39 -228t-108 -171t-162.5 -107.5t-202.5 -37.5zM582 145q68 0 123.5 24t94.5 72.5t60 121t21 169.5
t-21 171.5t-60 124.5t-94.5 76t-123.5 26t-123 -26t-94 -76t-60.5 -124.5t-21.5 -171.5t21.5 -169.5t60.5 -121t94 -72.5t123 -24zM523 1161l-193 205v68h209l102 -224v-49h-118z" />
    <glyph glyph-name="oacute" unicode="&#xf3;" horiz-adv-x="1163" 
d="M582 -12q-109 0 -202.5 37.5t-162.5 107.5t-108 171t-39 228q0 128 39 231t108 175t162.5 110.5t202.5 38.5t202.5 -38.5t162.5 -110.5t108 -175t39 -231q0 -127 -39 -228t-108 -171t-162.5 -107.5t-202.5 -37.5zM582 145q68 0 123.5 24t94.5 72.5t60 121t21 169.5
t-21 171.5t-60 124.5t-94.5 76t-123.5 26t-123 -26t-94 -76t-60.5 -124.5t-21.5 -171.5t21.5 -169.5t60.5 -121t94 -72.5t123 -24zM520 1161v49l103 224h210v-68l-192 -205h-121z" />
    <glyph glyph-name="ocircumflex" unicode="&#xf4;" horiz-adv-x="1163" 
d="M582 -12q-109 0 -202.5 37.5t-162.5 107.5t-108 171t-39 228q0 128 39 231t108 175t162.5 110.5t202.5 38.5t202.5 -38.5t162.5 -110.5t108 -175t39 -231q0 -127 -39 -228t-108 -171t-162.5 -107.5t-202.5 -37.5zM582 145q68 0 123.5 24t94.5 72.5t60 121t21 169.5
t-21 171.5t-60 124.5t-94.5 76t-123.5 26t-123 -26t-94 -76t-60.5 -124.5t-21.5 -171.5t21.5 -169.5t60.5 -121t94 -72.5t123 -24zM329 1221l180 213h150l174 -213v-60h-117l-137 131l-142 -131h-108v60z" />
    <glyph glyph-name="otilde" unicode="&#xf5;" horiz-adv-x="1163" 
d="M582 -12q-109 0 -202.5 37.5t-162.5 107.5t-108 171t-39 228q0 128 39 231t108 175t162.5 110.5t202.5 38.5t202.5 -38.5t162.5 -110.5t108 -175t39 -231q0 -127 -39 -228t-108 -171t-162.5 -107.5t-202.5 -37.5zM582 145q68 0 123.5 24t94.5 72.5t60 121t21 169.5
t-21 171.5t-60 124.5t-94.5 76t-123.5 26t-123 -26t-94 -76t-60.5 -124.5t-21.5 -171.5t21.5 -169.5t60.5 -121t94 -72.5t123 -24zM290 1235q15 78 60 123t116 45q34 0 64 -10.5t56.5 -22.5t49.5 -22.5t43 -10.5q29 0 47.5 19t26.5 51h118v-61q-15 -79 -59.5 -123.5
t-116.5 -44.5q-33 0 -62.5 10.5t-56 23t-49 23t-41.5 10.5q-32 0 -49.5 -18.5t-23.5 -50.5h-123v59z" />
    <glyph glyph-name="odieresis" unicode="&#xf6;" horiz-adv-x="1163" 
d="M582 -12q-109 0 -202.5 37.5t-162.5 107.5t-108 171t-39 228q0 128 39 231t108 175t162.5 110.5t202.5 38.5t202.5 -38.5t162.5 -110.5t108 -175t39 -231q0 -127 -39 -228t-108 -171t-162.5 -107.5t-202.5 -37.5zM582 145q68 0 123.5 24t94.5 72.5t60 121t21 169.5
t-21 171.5t-60 124.5t-94.5 76t-123.5 26t-123 -26t-94 -76t-60.5 -124.5t-21.5 -171.5t21.5 -169.5t60.5 -121t94 -72.5t123 -24zM406 1190q-24 0 -45.5 9t-37 24.5t-25 36.5t-9.5 45t9.5 44.5t25 36t37 24.5t45.5 9t45.5 -9t37 -24.5t24.5 -36t9 -44.5t-9 -45t-24.5 -36.5
t-37 -24.5t-45.5 -9zM758 1190q-24 0 -45 9t-36.5 24.5t-24.5 36.5t-9 45t9 44.5t24.5 36t36.5 24.5t45 9t45 -9t37 -24.5t25.5 -36t9.5 -44.5t-9.5 -45t-25.5 -36.5t-37 -24.5t-45 -9z" />
    <glyph glyph-name="divide" unicode="&#xf7;" 
d="M164 623v170h903v-170h-903zM616 496q26 0 49 -10t40.5 -27t27.5 -40t10 -50q0 -26 -10 -48.5t-27.5 -39t-40.5 -26t-49 -9.5t-48.5 9.5t-39.5 26t-26.5 39t-9.5 48.5q0 27 9.5 50t26.5 40t39.5 27t48.5 10zM616 1169q26 0 49 -9.5t40.5 -26.5t27.5 -40t10 -49t-10 -48.5
t-27.5 -39.5t-40.5 -26.5t-49 -9.5t-48.5 9.5t-39.5 26.5t-26.5 39.5t-9.5 48.5t9.5 49t26.5 40t39.5 26.5t48.5 9.5z" />
    <glyph glyph-name="oslash" unicode="&#xf8;" horiz-adv-x="1163" 
d="M582 -12q-160 0 -279 75l-88 -114h-125v47l115 149q-65 70 -100 167t-35 220q0 128 39 231t108 175t162.5 110.5t202.5 38.5q80 0 150 -20.5t130 -58.5l80 102h127v-45l-108 -143q61 -72 97 -170t36 -220q0 -127 -39 -228t-108 -171t-162.5 -107.5t-202.5 -37.5zM279 532
q0 -74 10 -132t30 -103l443 577q-37 29 -82.5 43.5t-97.5 14.5q-68 0 -124 -26t-95.5 -77t-61.5 -125.5t-22 -171.5zM582 139q68 0 124 25t95.5 74.5t61.5 123t22 170.5q0 73 -11.5 132t-31.5 104l-441 -575q73 -54 181 -54z" />
    <glyph glyph-name="ugrave" unicode="&#xf9;" horiz-adv-x="1171" 
d="M512 150q41 0 81.5 9t79 23t74.5 32.5t68 37.5v819h209v-1071h-131q-18 0 -31.5 4t-22.5 17t-14.5 37t-7.5 63q-40 -29 -85.5 -53.5t-95 -42.5t-101.5 -28.5t-105 -10.5q-63 0 -116.5 14t-93 47.5t-61.5 88.5t-22 136v799h209v-752q0 -51 12 -84t34 -52t52.5 -26t67.5 -7
zM525 1161l-193 205v68h209l102 -224v-49h-118z" />
    <glyph glyph-name="uacute" unicode="&#xfa;" horiz-adv-x="1171" 
d="M512 150q41 0 81.5 9t79 23t74.5 32.5t68 37.5v819h209v-1071h-131q-18 0 -31.5 4t-22.5 17t-14.5 37t-7.5 63q-40 -29 -85.5 -53.5t-95 -42.5t-101.5 -28.5t-105 -10.5q-63 0 -116.5 14t-93 47.5t-61.5 88.5t-22 136v799h209v-752q0 -51 12 -84t34 -52t52.5 -26t67.5 -7
zM522 1161v49l103 224h210v-68l-192 -205h-121z" />
    <glyph glyph-name="ucircumflex" unicode="&#xfb;" horiz-adv-x="1171" 
d="M512 150q41 0 81.5 9t79 23t74.5 32.5t68 37.5v819h209v-1071h-131q-18 0 -31.5 4t-22.5 17t-14.5 37t-7.5 63q-40 -29 -85.5 -53.5t-95 -42.5t-101.5 -28.5t-105 -10.5q-63 0 -116.5 14t-93 47.5t-61.5 88.5t-22 136v799h209v-752q0 -51 12 -84t34 -52t52.5 -26t67.5 -7
zM329 1221l180 213h150l174 -213v-60h-117l-137 131l-142 -131h-108v60z" />
    <glyph glyph-name="udieresis" unicode="&#xfc;" horiz-adv-x="1171" 
d="M512 150q41 0 81.5 9t79 23t74.5 32.5t68 37.5v819h209v-1071h-131q-18 0 -31.5 4t-22.5 17t-14.5 37t-7.5 63q-40 -29 -85.5 -53.5t-95 -42.5t-101.5 -28.5t-105 -10.5q-63 0 -116.5 14t-93 47.5t-61.5 88.5t-22 136v799h209v-752q0 -51 12 -84t34 -52t52.5 -26t67.5 -7
zM405 1190q-24 0 -45.5 9t-37 24.5t-25 36.5t-9.5 45t9.5 44.5t25 36t37 24.5t45.5 9t45.5 -9t37 -24.5t24.5 -36t9 -44.5t-9 -45t-24.5 -36.5t-37 -24.5t-45.5 -9zM757 1190q-24 0 -45 9t-36.5 24.5t-24.5 36.5t-9 45t9 44.5t24.5 36t36.5 24.5t45 9t45 -9t37 -24.5
t25.5 -36t9.5 -44.5t-9.5 -45t-25.5 -36.5t-37 -24.5t-45 -9z" />
    <glyph glyph-name="yacute" unicode="&#xfd;" horiz-adv-x="1077" 
d="M309 -272l148 333l-402 953v57h197l305 -752h2l285 752h180v-57l-535 -1346h-180v60zM498 1161v49l103 224h210v-68l-192 -205h-121z" />
    <glyph glyph-name="thorn" unicode="&#xfe;" horiz-adv-x="1165" 
d="M346 934q30 30 66 57.5t78.5 49t93 34t110.5 12.5q75 0 147.5 -27t129 -89.5t91 -163.5t34.5 -248q0 -155 -39.5 -260.5t-103.5 -170.5t-145 -93.5t-165 -28.5q-101 0 -172 26t-125 70v-434h-209v1766h119q28 0 46 -5t27.5 -20.5t13 -43.5t3.5 -73v-358zM621 920
q-39 0 -76.5 -10.5t-72.5 -27.5t-66.5 -39t-59.5 -46v-543q48 -48 106.5 -71t139.5 -23q55 0 107.5 16t93 58t65.5 115.5t25 189.5q0 114 -22.5 188t-59.5 117t-84 59.5t-96 16.5z" />
    <glyph glyph-name="ydieresis" unicode="&#xff;" horiz-adv-x="1077" 
d="M309 -272l148 333l-402 953v57h197l305 -752h2l285 752h180v-57l-535 -1346h-180v60zM380 1190q-24 0 -45.5 9t-37 24.5t-25 36.5t-9.5 45t9.5 44.5t25 36t37 24.5t45.5 9t45.5 -9t37 -24.5t24.5 -36t9 -44.5t-9 -45t-24.5 -36.5t-37 -24.5t-45.5 -9zM732 1190
q-24 0 -45 9t-36.5 24.5t-24.5 36.5t-9 45t9 44.5t24.5 36t36.5 24.5t45 9t45 -9t37 -24.5t25.5 -36t9.5 -44.5t-9.5 -45t-25.5 -36.5t-37 -24.5t-45 -9z" />
    <glyph glyph-name="dotlessi" unicode="&#x131;" horiz-adv-x="492" 
d="M139 0v1071h117q31 0 49 -6t27.5 -23t12.5 -48.5t3 -82.5v-911h-209z" />
    <glyph glyph-name="Lslash" unicode="&#x141;" horiz-adv-x="1116" 
d="M176 0v502l-149 -62v164l149 62v768h223v-674l410 172v-162l-410 -174v-428h639v-168h-862z" />
    <glyph glyph-name="lslash" unicode="&#x142;" horiz-adv-x="510" 
d="M150 0v668l-134 -82v164l134 81v603h116q30 0 48 -5t28 -20t13 -42.5t3 -72.5v-331l140 86v-164l-140 -86v-799h-208z" />
    <glyph glyph-name="OE" unicode="&#x152;" horiz-adv-x="1923" 
d="M799 0q-174 0 -307.5 41t-224.5 128t-138 221.5t-47 322.5q0 186 47.5 321.5t139 224.5t226.5 132t310 43h1016v-172h-641v-447h462v-164h-462v-483h663v-168h-1044zM805 1262q-126 0 -219 -29.5t-154 -95t-91 -169.5t-30 -253q0 -147 29.5 -251t90.5 -170t154 -96
t220 -30h151v1094h-151z" />
    <glyph glyph-name="oe" unicode="&#x153;" horiz-adv-x="1886" 
d="M582 -12q-109 0 -202.5 37.5t-162.5 107.5t-108 171t-39 228q0 128 39 231t108 175t162.5 110.5t202.5 38.5q133 0 235.5 -55.5t165.5 -159.5q60 104 159.5 159.5t227.5 55.5q105 0 188.5 -31.5t141.5 -95.5t88.5 -161.5t30.5 -229.5q0 -21 -2 -44t-2 -29h-721
q4 -95 27.5 -162t65 -109t100.5 -61t134 -19q104 0 175.5 29t117.5 70h72v-146q-30 -20 -67.5 -39.5t-85.5 -35.5t-108 -25.5t-134 -9.5q-149 0 -250 52.5t-160 152.5q-63 -101 -165.5 -153t-233.5 -52zM582 141q68 0 123.5 25t94.5 74t60 122t21 170t-21 171t-60 124
t-94.5 75.5t-123.5 25.5t-123 -25.5t-94 -75.5t-60.5 -124t-21.5 -171t21.5 -170t60.5 -122t94 -74t123 -25zM1370 944q-52 0 -98 -16.5t-82 -53.5t-60 -96.5t-32 -144.5h514q-2 87 -20 146t-49.5 96t-75 53t-97.5 16z" />
    <glyph glyph-name="Scaron" unicode="&#x160;" horiz-adv-x="1065" 
d="M496 -12q-76 0 -139 9t-115.5 24.5t-97.5 38t-85 49.5v180h78q25 -26 58 -50t76 -42t97 -28.5t121 -10.5q140 0 217.5 57t77.5 174q0 67 -25.5 107.5t-69.5 67t-103.5 43.5t-126.5 36q-95 28 -166 62.5t-118 82.5t-71 112t-24 151q0 93 32 166.5t91.5 124.5t144 77.5
t189.5 26.5q129 0 222.5 -27.5t158.5 -68.5v-174h-76q-28 22 -59 40.5t-67 31.5t-78 20.5t-93 7.5q-138 0 -204.5 -54.5t-66.5 -154.5q0 -56 19.5 -93t56.5 -62.5t89.5 -43t117.5 -34.5q110 -30 191 -63.5t134.5 -81t80 -114t26.5 -163.5q0 -105 -33.5 -184t-96.5 -132.5
t-154.5 -80.5t-208.5 -27zM781 1671l-181 -192h-147l-172 192v60h115l137 -109l137 109h111v-60z" />
    <glyph glyph-name="scaron" unicode="&#x161;" horiz-adv-x="907" 
d="M428 -10q-66 0 -119 8t-95 21.5t-75.5 30t-60.5 34.5v162h67q19 -18 45 -35t60 -30.5t76 -22t92 -8.5q223 0 223 155q0 34 -10.5 58.5t-36.5 43t-69.5 31.5t-108.5 23q-81 12 -144 33.5t-106 58t-65.5 89.5t-22.5 128q0 76 27 134.5t77 98t121 60t160 20.5
q113 0 187.5 -22t127.5 -53v-160h-67q-39 31 -98.5 53.5t-147.5 22.5q-103 0 -152 -34.5t-49 -103.5q0 -32 12 -55t39 -40t70.5 -29t106.5 -21q88 -13 153 -35.5t108 -59.5t64 -91.5t21 -130.5t-24.5 -138t-75 -105.5t-128 -67t-182.5 -23.5zM705 1374l-181 -213h-149
l-174 213v60h117l137 -131l141 131h109v-60z" />
    <glyph glyph-name="Ydieresis" unicode="&#x178;" horiz-adv-x="1190" 
d="M494 0v573l-439 789v72h203l352 -650h2l344 650h179v-72l-420 -782v-580h-221zM442 1489q-24 0 -45.5 9t-37 24.5t-25 37t-9.5 46.5q0 23 9.5 43.5t25 36.5t37 25t45.5 9t45.5 -9t37 -25t24.5 -36.5t9 -43.5q0 -25 -9 -46.5t-24.5 -37t-37 -24.5t-45.5 -9zM782 1489
q-24 0 -45 9t-36.5 24.5t-24.5 37t-9 46.5q0 23 9 43.5t24.5 36.5t36.5 25t45 9t45 -9t36.5 -25t25 -36.5t9.5 -43.5q0 -25 -9.5 -46.5t-25 -37t-36.5 -24.5t-45 -9z" />
    <glyph glyph-name="Zcaron" unicode="&#x17d;" horiz-adv-x="1108" 
d="M55 178l752 1082v6h-696v168h931v-183l-749 -1081v-6h741v-164h-979v178zM845 1671l-181 -192h-147l-172 192v60h115l137 -109l137 109h111v-60z" />
    <glyph glyph-name="zcaron" unicode="&#x17e;" horiz-adv-x="977" 
d="M76 154l598 764h-561v153h794v-153l-600 -762h586v-156h-817v154zM759 1374l-181 -213h-149l-174 213v60h117l137 -131l141 131h109v-60z" />
    <glyph glyph-name="florin" unicode="&#x192;" 
d="M467 893l33 272q18 147 98 215t219 68q53 0 86.5 -6.5t59.5 -16.5v-127h-84q-36 0 -64 -6.5t-49 -23t-34 -44t-17 -69.5l-33 -262h246v-145h-264l-113 -938h-215l113 938h-173v145h191z" />
    <glyph glyph-name="circumflex" unicode="&#x2c6;" horiz-adv-x="834" 
d="M164 1221l180 213h150l174 -213v-60h-117l-137 131l-142 -131h-108v60z" />
    <glyph glyph-name="caron" unicode="&#x2c7;" horiz-adv-x="834" 
d="M668 1374l-181 -213h-149l-174 213v60h117l137 -131l141 131h109v-60z" />
    <glyph glyph-name="breve" unicode="&#x2d8;" horiz-adv-x="834" 
d="M416 1163q-53 0 -96 16.5t-74.5 44t-51 63.5t-26.5 75v59h135q6 -51 34 -80.5t79 -29.5q54 0 81 29.5t33 80.5h136v-59q-8 -39 -27.5 -75t-51 -63.5t-74.5 -44t-97 -16.5z" />
    <glyph glyph-name="dotaccent" unicode="&#x2d9;" horiz-adv-x="834" 
d="M418 1190q-25 0 -47 9.5t-38.5 25.5t-26 37.5t-9.5 46.5t9.5 47.5t26 39t38.5 26.5t47 10q24 0 46 -10t38.5 -26.5t26.5 -39t10 -47.5t-10 -46.5t-26.5 -37.5t-38.5 -25.5t-46 -9.5z" />
    <glyph glyph-name="ring" unicode="&#x2da;" horiz-adv-x="834" 
d="M416 1167q-39 0 -74.5 13t-61.5 38t-41.5 60t-15.5 80t15.5 80.5t41.5 61t61.5 39t74.5 13.5t74 -13.5t62 -39t42.5 -61t15.5 -80.5t-15.5 -80t-42.5 -60t-62 -38t-74 -13zM416 1268q37 0 61.5 25t24.5 65q0 42 -24.5 67t-61.5 25q-35 0 -59.5 -25t-24.5 -67
q0 -40 24.5 -65t59.5 -25z" />
    <glyph glyph-name="ogonek" unicode="&#x2db;" horiz-adv-x="823" 
d="M463 -338q-82 0 -130 40t-48 112q0 31 10 58t26.5 50.5t37.5 43t44 34.5h138q-42 -35 -67 -67t-25 -70q0 -32 19 -51t67 -19h49v-104q-23 -13 -52 -20t-69 -7z" />
    <glyph glyph-name="tilde" unicode="&#x2dc;" horiz-adv-x="834" 
d="M115 1235q15 78 60 123t116 45q34 0 64 -10.5t56.5 -22.5t49.5 -22.5t43 -10.5q29 0 47.5 19t26.5 51h118v-61q-15 -79 -59.5 -123.5t-116.5 -44.5q-33 0 -62.5 10.5t-56 23t-49 23t-41.5 10.5q-32 0 -49.5 -18.5t-23.5 -50.5h-123v59z" />
    <glyph glyph-name="hungarumlaut" unicode="&#x2dd;" horiz-adv-x="834" 
d="M213 1204l80 230h172v-68l-135 -205h-117v43zM500 1204l78 230h174v-68l-136 -205h-116v43z" />
    <glyph glyph-name="endash" unicode="&#x2013;" horiz-adv-x="883" 
d="M92 670h699v-172h-699v172z" />
    <glyph glyph-name="emdash" unicode="&#x2014;" horiz-adv-x="1460" 
d="M92 670h1276v-172h-1276v172z" />
    <glyph glyph-name="quoteleft" unicode="&#x2018;" horiz-adv-x="397" 
d="M324 1337q-48 -8 -73.5 -28.5t-25.5 -46.5q0 -12 3.5 -20t10 -13t15 -10t18.5 -11q23 -15 34 -37t11 -57q0 -46 -32.5 -76t-83.5 -30q-26 0 -49 9t-40 27.5t-27.5 47.5t-10.5 69q0 128 62.5 196.5t187.5 82.5v-103z" />
    <glyph glyph-name="quoteright" unicode="&#x2019;" horiz-adv-x="397" 
d="M74 1116q49 8 75.5 29t26.5 47q0 12 -4 20t-11 13.5t-16.5 10t-19.5 11.5q-22 16 -33.5 36.5t-11.5 55.5q0 47 33 77t84 30q25 0 48 -9t40.5 -28t28 -48t10.5 -69q0 -128 -61.5 -196t-188.5 -82v102z" />
    <glyph glyph-name="quotesinglbase" unicode="&#x201a;" horiz-adv-x="397" 
d="M74 -80q49 6 75.5 27t26.5 47q0 12 -4 20t-11 13.5t-16.5 10t-19.5 11.5q-22 16 -33.5 36.5t-11.5 55.5q0 47 33 77t84 30q25 0 48 -9t40.5 -28t28 -48t10.5 -69q0 -127 -61.5 -194.5t-188.5 -81.5v102z" />
    <glyph glyph-name="quotedblleft" unicode="&#x201c;" horiz-adv-x="750" 
d="M324 1337q-48 -8 -73.5 -28.5t-25.5 -46.5q0 -12 3.5 -20t10 -13t15 -10t18.5 -11q23 -15 34 -37t11 -57q0 -46 -32.5 -76t-83.5 -30q-26 0 -49 9t-40 27.5t-27.5 47.5t-10.5 69q0 128 62.5 196.5t187.5 82.5v-103zM676 1337q-50 -8 -75.5 -28.5t-25.5 -46.5
q0 -12 4.5 -20t11.5 -13t16 -10t18 -11q23 -15 35 -37t12 -57q0 -23 -9 -42.5t-25 -33.5t-38 -22t-47 -8q-26 0 -49 9t-40 27.5t-27.5 47.5t-10.5 69q0 128 62.5 196.5t187.5 82.5v-103z" />
    <glyph glyph-name="quotedblright" unicode="&#x201d;" horiz-adv-x="750" 
d="M426 1116q48 8 74 29t26 47q0 12 -4 20t-10.5 13.5t-15.5 10t-19 11.5q-21 16 -33 36.5t-12 55.5q0 47 33 77t84 30q25 0 48 -9t40.5 -28t28 -48t10.5 -69q0 -128 -61.5 -196t-188.5 -82v102zM74 1116q49 8 75.5 29t26.5 47q0 12 -4 20t-11 13.5t-16.5 10t-19.5 11.5
q-22 16 -33.5 36.5t-11.5 55.5q0 47 33 77t84 30q25 0 48 -9t40.5 -28t28 -48t10.5 -69q0 -128 -61.5 -196t-188.5 -82v102z" />
    <glyph glyph-name="quotedblbase" unicode="&#x201e;" horiz-adv-x="750" 
d="M426 -80q48 6 74 27t26 47q0 12 -4 20t-10.5 13.5t-15.5 10t-19 11.5q-21 16 -33 36.5t-12 55.5q0 47 33 77t84 30q25 0 48 -9t40.5 -28t28 -48t10.5 -69q0 -127 -61.5 -194.5t-188.5 -81.5v102zM74 -80q49 6 75.5 27t26.5 47q0 12 -4 20t-11 13.5t-16.5 10t-19.5 11.5
q-22 16 -33.5 36.5t-11.5 55.5q0 47 33 77t84 30q25 0 48 -9t40.5 -28t28 -48t10.5 -69q0 -127 -61.5 -194.5t-188.5 -81.5v102z" />
    <glyph glyph-name="dagger" unicode="&#x2020;" horiz-adv-x="918" 
d="M350 555v137l43 217l-215 -45h-112v209h112l215 -47l-37 201v207h205v-207l-39 -201l217 47h111v-209h-111l-217 45l45 -215v-139l-30 -655h-156z" />
    <glyph glyph-name="daggerdbl" unicode="&#x2021;" horiz-adv-x="918" 
d="M356 102l37 199l-215 -45h-112v207h112l215 -45l-43 178v139l45 180l-217 -45h-112v207h112l217 -45l-39 199v203h205v-203l-39 -199l217 45h111v-207h-111l-217 45l47 -178v-139l-49 -180l219 45h111v-207h-111l-219 45l41 -199v-202h-205v202z" />
    <glyph glyph-name="bullet" unicode="&#x2022;" horiz-adv-x="657" 
d="M328 332q-53 0 -100 17.5t-81.5 50.5t-54.5 81t-20 109t20 109.5t54.5 82.5t81.5 52t100 18q54 0 100.5 -18t81 -52t54.5 -82.5t20 -109.5t-20 -109t-54.5 -81t-81 -50.5t-100.5 -17.5z" />
    <glyph glyph-name="ellipsis" unicode="&#x2026;" horiz-adv-x="1278" 
d="M201 -10q-26 0 -49.5 9.5t-40.5 27t-27 40.5t-10 50t10 50.5t27 41t40.5 27.5t49.5 10t49.5 -10t41 -27.5t28 -41t10.5 -50.5t-10.5 -50t-28 -40.5t-41 -27t-49.5 -9.5zM639 -10q-27 0 -50 9.5t-40.5 27t-27 40.5t-9.5 50t9.5 50.5t27 41t40.5 27.5t50 10q26 0 49.5 -10
t41 -27.5t28 -41t10.5 -50.5t-10.5 -50t-28 -40.5t-41 -27t-49.5 -9.5zM1077 -10q-27 0 -50.5 9.5t-41 27t-27.5 40.5t-10 50t10 50.5t27.5 41t41 27.5t50.5 10q26 0 49 -10t40.5 -27.5t27.5 -41t10 -50.5t-10 -50t-27.5 -40.5t-40.5 -27t-49 -9.5z" />
    <glyph glyph-name="perthousand" unicode="&#x2030;" horiz-adv-x="2458" 
d="M424 829q74 0 118 61t44 185q0 125 -44 186.5t-118 61.5q-75 0 -118.5 -61.5t-43.5 -186.5q0 -124 43.5 -185t118.5 -61zM424 707q-65 0 -124 23t-104.5 69.5t-72.5 116t-27 163.5q0 93 27 162t72.5 114.5t104.5 68t124 22.5q64 0 123.5 -22.5t105 -68t72.5 -114.5
t27 -162q0 -94 -27 -163.5t-72.5 -116t-105 -69.5t-123.5 -23zM1270 1493h166l-1010 -1563h-166zM1274 111q74 0 118 62t44 183q0 125 -44 186.5t-118 61.5q-75 0 -119.5 -61.5t-44.5 -186.5q0 -121 44.5 -183t119.5 -62zM1274 -12q-65 0 -124.5 23t-104.5 69.5t-72 116.5
t-27 163q0 94 27 163t72 115t104.5 68.5t124.5 22.5q64 0 122.5 -22.5t103.5 -68.5t72 -115t27 -163q0 -93 -27 -163t-72 -116.5t-103.5 -69.5t-122.5 -23zM2034 111q74 0 117.5 62t43.5 183q0 125 -43.5 186.5t-117.5 61.5q-76 0 -120 -61.5t-44 -186.5q0 -121 44 -183
t120 -62zM2034 -12q-65 0 -124.5 23t-104.5 69.5t-72 116.5t-27 163q0 94 27 163t72 115t104.5 68.5t124.5 22.5q64 0 123.5 -22.5t104.5 -68.5t72 -115t27 -163q0 -93 -27 -163t-72 -116.5t-104.5 -69.5t-123.5 -23z" />
    <glyph glyph-name="guilsinglleft" unicode="&#x2039;" horiz-adv-x="594" 
d="M80 485v93l270 399h164v-55l-252 -385v-5l252 -391v-53h-164z" />
    <glyph glyph-name="guilsinglright" unicode="&#x203a;" horiz-adv-x="594" 
d="M514 578v-91l-268 -399h-166v53l252 391v7l-252 383v55h166z" />
    <glyph glyph-name="fraction" unicode="&#x2044;" horiz-adv-x="446" 
d="M-186 -70h-160l981 1563h158z" />
    <glyph glyph-name="Euro" unicode="&#x20ac;" 
d="M420 524q28 -188 112.5 -280t235.5 -92q59 0 105.5 10t83 26.5t66 38t54.5 45.5h78v-149q-33 -28 -71.5 -52.5t-85.5 -43t-106 -29t-132 -10.5q-114 0 -208.5 35t-167 102.5t-120.5 167.5t-69 231h-134v131h119q-1 4 -1.5 12.5t-0.5 18v18v13.5v33.5t2 33.5h-119v134h138
q24 126 75.5 224.5t126.5 166t170.5 102.5t206.5 35q65 0 115 -6.5t91.5 -19.5t77.5 -31t73 -41v-158h-86q-25 19 -51 36t-57 29.5t-69 19.5t-86 7q-149 0 -241 -92.5t-123 -271.5h444l-26 -134h-434v-59v-70h409l-27 -131h-368z" />
    <glyph glyph-name="trademark" unicode="&#x2122;" horiz-adv-x="1329" 
d="M223 864v467h-164v103h461v-103h-164v-467h-133zM608 1434h201l111 -359h2l114 359h201v-570h-131v455h-2l-143 -455h-97l-143 455h-2v-455h-111v570z" />
    <glyph glyph-name="minus" unicode="&#x2212;" 
d="M164 623v170h903v-170h-903z" />
    <glyph glyph-name="fi" unicode="&#xfb01;" horiz-adv-x="1114" 
d="M41 1071h129v92q0 75 20.5 128.5t59 88.5t92 51.5t119.5 16.5q48 0 81.5 -6.5t55.5 -14.5v-133h-72q-35 0 -62 -6t-46 -22t-29 -42.5t-10 -68.5v-84h219v-147h-219v-924h-209v924h-129v147zM762 0v1071h117q31 0 49 -6t27.5 -23t12.5 -48.5t3 -82.5v-911h-209zM868 1190
q-24 0 -46.5 9.5t-39.5 25.5t-27 37.5t-10 46.5t10 47.5t27 39t39.5 26.5t46.5 10q25 0 47 -10t39 -26.5t27 -39t10 -47.5t-10 -46.5t-27 -37.5t-39 -25.5t-47 -9.5z" />
    <glyph glyph-name="fl" unicode="&#xfb02;" horiz-adv-x="1112" 
d="M41 1071h129v92q0 75 20.5 128.5t59 88.5t92 51.5t119.5 16.5q48 0 81.5 -6.5t55.5 -14.5v-133h-72q-35 0 -62 -6t-46 -22t-29 -42.5t-10 -68.5v-84h219v-147h-219v-924h-209v924h-129v147zM762 0v1434h117q31 0 49.5 -5t28.5 -20t13 -42.5t3 -72.5v-1294h-211z" />
    <glyph glyph-name="grave.cap" horiz-adv-x="834" 
d="M369 1479l-181 180v65h211l88 -194v-51h-118z" />
    <glyph glyph-name="dieresis.cap" horiz-adv-x="834" 
d="M246 1489q-24 0 -45.5 9t-37 24.5t-25 37t-9.5 46.5q0 23 9.5 43.5t25 36.5t37 25t45.5 9t45.5 -9t37 -25t24.5 -36.5t9 -43.5q0 -25 -9 -46.5t-24.5 -37t-37 -24.5t-45.5 -9zM586 1489q-24 0 -45 9t-36.5 24.5t-24.5 37t-9 46.5q0 23 9 43.5t24.5 36.5t36.5 25t45 9
t45 -9t36.5 -25t25 -36.5t9.5 -43.5q0 -25 -9.5 -46.5t-25 -37t-36.5 -24.5t-45 -9z" />
    <glyph glyph-name="macron.cap" horiz-adv-x="834" 
d="M666 1518h-498v149h498v-149z" />
    <glyph glyph-name="acute.cap" horiz-adv-x="834" 
d="M346 1530l88 194h209v-65l-176 -180h-121v51z" />
    <glyph glyph-name="circumflex.cap" horiz-adv-x="834" 
d="M166 1538l178 193h150l172 -193v-59h-117l-135 110l-138 -110h-110v59z" />
    <glyph glyph-name="caron.cap" horiz-adv-x="834" 
d="M666 1671l-181 -192h-147l-172 192v60h115l137 -109l137 109h111v-60z" />
    <glyph glyph-name="breve.cap" horiz-adv-x="834" 
d="M416 1483q-53 0 -96 15t-74.5 40t-51 58t-26.5 69v59h135q5 -42 33.5 -68t79.5 -26q54 0 81 26t33 68h136v-59q-8 -36 -27.5 -69t-51 -58t-74.5 -40t-97 -15z" />
    <glyph glyph-name="dotaccent.cap" horiz-adv-x="834" 
d="M418 1491q-25 0 -47 9.5t-38.5 25.5t-26 37.5t-9.5 46.5t9.5 47.5t26 39t38.5 26.5t47 10q24 0 46 -10t38.5 -26.5t26.5 -39t10 -47.5t-10 -46.5t-26.5 -37.5t-38.5 -25.5t-46 -9.5z" />
    <glyph glyph-name="ring.cap" horiz-adv-x="834" 
d="M416 1485q-39 0 -74.5 13.5t-61.5 38.5t-41.5 60.5t-15.5 79.5t15.5 79.5t41.5 61t61.5 39t74.5 13.5t74 -13.5t62 -39t42.5 -61t15.5 -79.5t-15.5 -79.5t-42.5 -60.5t-62 -38.5t-74 -13.5zM416 1587q37 0 61.5 24t24.5 66t-24.5 67t-61.5 25q-35 0 -59.5 -25t-24.5 -67
t24.5 -66t59.5 -24z" />
    <glyph glyph-name="tilde.cap" horiz-adv-x="834" 
d="M115 1548q15 79 60 123.5t116 44.5q34 0 64 -10t56.5 -22.5t49.5 -22.5t43 -10q29 0 47.5 18t26.5 49h118v-59q-15 -79 -59.5 -123.5t-116.5 -44.5q-33 0 -62.5 10.5t-56 23.5t-49 23.5t-41.5 10.5q-32 0 -49.5 -19t-23.5 -53h-123v61z" />
    <glyph glyph-name="hungarumlaut.cap" horiz-adv-x="834" 
d="M213 1524l70 200h174v-65l-127 -180h-117v45zM500 1524l69 200h172v-65l-125 -180h-116v45z" />
    </font>
</defs>
</svg>
